<svg xmlns="http://www.w3.org/2000/svg" xmlns:xlink="http://www.w3.org/1999/xlink" viewBox="0 0 1080 1080"><defs><style>      .st0 {        fill: #dadada;        fill-rule: evenodd;        mix-blend-mode: multiply;        opacity: .1;      }      .st0, .st1, .st2 {        isolation: isolate;      }      .st3 {        fill: #a6dbf8;      }      .st4 {        fill: #fff;      }      .st5 {        fill: none;      }      .st6 {        clip-path: url(#clippath-1);      }      .st2 {        opacity: .3;      }      .st7 {        clip-path: url(#clippath-3);      }      .st8 {        clip-path: url(#clippath-2);      }      .st9 {        clip-path: url(#clippath);      }    </style><clipPath id="clippath"><rect class="st5" x="565.5" y="361.3" width="125.4" height="78.6"></rect></clipPath><clipPath id="clippath-1"><path class="st5" d="M652.5,363.2c-34.5,6.9-64.4,27.9-82.7,57.9-4.4,7.3-5.5,14.4-3,17.3,2.5,2.9,8,1.5,16.1-2.7,11.9-6.3,30.6-17.5,47.9-26.2,11.5-6,23.6-10.9,36.1-14.7,33.3-8.9,35.1-41.6-14.4-31.6h0Z"></path></clipPath><clipPath id="clippath-2"><rect class="st5" x="239.7" y="361.3" width="148" height="150.3"></rect></clipPath><clipPath id="clippath-3"><path class="st5" d="M342.7,363.3c-35.1,6.6-64.4,30.6-77.7,63.8-3.3,6-3,13.3.7,19.1,3.2,3,9.1,1.7,17.1-3,11.7-6.9,29.7-19.3,46.7-28.9,11.5-6.6,23.7-12,36.3-16.1,34.6-9.9,29.1-45.7-23-34.8M240.1,481.3c-2.5,14.2,5.2,42.7,18,24.6,4.8-7.1,8.6-14.7,11.5-22.7,2.7-7.9.4-16.6-5.9-22.1-14.9-9.5-21.9,10.3-23.8,20.3h.2Z"></path></clipPath></defs><g class="st1"><g id="Camada_1"><circle id="Elipse_6" class="st3" cx="540" cy="540" r="490.7"></circle><g id="Grupo_1366"><g id="Grupo_1239"><path id="Caminho_597" class="st4" d="M539.9,399.1c-49.6-63.1-132.4-89.9-209.5-68-86.8,27.5-122.6,123-107.9,207.4,23.3,134,169.6,267.5,296.1,317,6.6,2.7,13.7,4.1,20.8,4.2h1.1c7.1-.1,14.1-1.5,20.7-4.2,127.8-50.5,272.8-183.1,296.2-317,2-11.7,3.1-23.6,3.2-35.4v-3.7c3.7-74.3-41.3-142.5-111.1-168.3-17.5-5.6-35.8-8.4-54.2-8.5-60.5,1.3-117.3,29.3-155.3,76.4"></path><g id="Grupo_930" class="st2"><g id="Grupo_915"><g class="st9"><g id="Grupo_914"><g id="Grupo_913"><g class="st6"><g id="Grupo_912"><rect id="Ret&#xE2;ngulo_416" class="st4" x="564.3" y="353.3" width="137.6" height="87.9"></rect></g></g></g></g></g></g></g><g id="Grupo_920" class="st2"><g class="st8"><g id="Grupo_919"><g id="Grupo_918"><g class="st7"><g id="Grupo_917"><rect id="Ret&#xE2;ngulo_418" class="st4" x="237.6" y="352.5" width="162.8" height="171.5"></rect></g></g></g></g></g></g><path id="Caminho_608" class="st0" d="M564,373.8c74.5-55.6,170.8-16,214.2,47.3,35.1,54.8,43.2,122.7,22,184.3-32.2,104.6-173.2,207.8-260.3,213-66.7,4-142.9-40.3-216.5-98.3,54.6,58.5,121.2,104.7,195.1,135.5,13.6,5.6,29,5.6,42.6,0,127.8-50.5,272.8-183,296.2-317,14.7-84.4-21.1-179.9-107.9-207.4-65-19.1-135.3-2.9-185.4,42.7"></path></g></g></g></g></svg>