<svg xmlns="http://www.w3.org/2000/svg" id="Camada_1" viewBox="0 0 1080 300"><defs><style>      .st0 {        fill: #c15d17;      }      .st1 {        fill: #7a3610;      }      .st2 {        fill: #fff;      }      .st3 {        fill: #9c4816;      }      .st4 {        fill: #a6dbf8;      }      .st5 {        fill: #e94c4d;      }      .st6 {        fill: #616160;      }      .st7 {        fill: #9c9b9b;      }      .st8 {        fill: #c1172b;      }      .st9 {        fill: #64b6e6;      }      .st10 {        fill: #f5a168;      }      .st11 {        fill: #f8b886;      }      .st12 {        fill: #c2c1c1;      }      .st13 {        fill: #e2e1e1;      }      .st14 {        fill: #fcd3ac;      }    </style></defs><g><path class="st6" d="M326.5,82.6h39.2v11.9h-24.7v14.7h23.1v11.8h-23.1v25.8h-14.5v-64.2Z"></path><path class="st6" d="M384.8,128.1c.4,6,6.4,8.9,13.1,8.9s8.9-.7,12.8-2l2,9.8c-4.8,2-10.6,2.9-16.9,2.9-15.8,0-24.8-9.2-24.8-23.7s7.4-24.9,23.5-24.9,20.8,11.7,20.8,23.3-.3,4.7-.5,5.7h-30ZM401.8,118.1c0-3.5-1.5-9.4-8.1-9.4s-8.6,5.6-9,9.4h17.1ZM409.8,79.9l-11.6,14.4h-9.9l8.2-14.4h13.4-.1Z"></path><path class="st6" d="M454.3,128.1c.4,6,6.4,8.9,13.1,8.9s8.9-.7,12.8-2l2,9.8c-4.8,2-10.6,2.9-16.9,2.9-15.8,0-24.8-9.2-24.8-23.7s7.4-24.9,23.5-24.9,20.8,11.7,20.8,23.3-.3,4.7-.5,5.7h-30ZM471.3,118.1c0-3.5-1.5-9.4-8.1-9.4s-8.6,5.6-9,9.4h17.1Z"></path><path class="st6" d="M551.2,119.6h-23.6v15.2h26.4v11.9h-40.9v-64.1h39.5v11.9h-25v13.4h23.6v11.8h0Z"></path><path class="st6" d="M563.7,134.1c2.6,1.6,8.2,3.5,12.4,3.5s6.2-1.5,6.2-3.8-1.5-3.6-6.8-5.4c-9.7-3.2-13.3-8.5-13.3-13.9,0-8.7,7.4-15.3,18.9-15.3s10.3,1.3,13.1,2.7l-2.5,10c-2.1-1.1-6.2-2.6-10.1-2.6s-5.6,1.4-5.6,3.8,1.8,3.4,7.6,5.4c8.8,3,12.5,7.5,12.6,14.3,0,8.7-6.8,15.1-20.1,15.1s-11.5-1.4-15.1-3.3l2.6-10.3v-.2Z"></path><path class="st6" d="M605,115.8c0-6.1-.2-11.3-.4-15.6h12.6l.7,6.5h.2c3.5-4.9,8.8-7.6,15.5-7.6,10.2,0,19.3,8.9,19.3,23.7s-10.8,24.9-21.2,24.9-10-2.2-12.1-5.3h-.2v23.1h-14.5v-49.8h.1ZM619.5,126.8c0,1.1,0,2.1.3,3,.9,3.9,4.3,6.9,8.5,6.9,6.2,0,10-5.3,10-13.2s-3.3-13.1-9.8-13.1-7.8,3.1-8.7,7.3c-.2.8-.3,1.7-.3,2.6v6.4h0Z"></path><path class="st6" d="M673.3,128.1c.4,6,6.4,8.9,13.1,8.9s8.9-.7,12.8-2l2,9.8c-4.8,2-10.6,2.9-16.9,2.9-15.8,0-24.8-9.2-24.8-23.7s7.4-24.9,23.5-24.9,20.8,11.7,20.8,23.3-.3,4.7-.5,5.7h-30ZM690.3,118.1c0-3.5-1.5-9.4-8.1-9.4s-8.6,5.6-9,9.4h17.1Z"></path><path class="st6" d="M712.4,115.5c0-6.8,0-11.3-.4-15.4h12.4l.5,8.6h.4c2.4-6.8,8.1-9.7,12.6-9.7s2,0,3.1.3v13.6c-1.1-.2-2.3-.4-3.9-.4-5.3,0-8.9,2.8-9.9,7.4-.2.9-.3,2-.3,3.2v23.6h-14.5v-31.2h0Z"></path><path class="st6" d="M774,146.7l-.9-4.6h-.3c-3,3.7-7.8,5.7-13.3,5.7-9.5,0-15.1-6.8-15.1-14.2,0-12.1,10.9-17.9,27.3-17.9v-.6c0-2.5-1.3-6-8.5-6s-9.7,1.6-12.8,3.5l-2.7-9.3c3.2-1.9,9.6-4.2,18.1-4.2,15.5,0,20.4,9.2,20.4,20.1v16.2c0,4.4.2,8.7.7,11.3h-13,0ZM772.3,124.7c-7.6,0-13.5,1.8-13.5,7.3s2.5,5.6,5.7,5.6,6.5-2.4,7.5-5.3c.2-.8.3-1.7.3-2.5v-5.1Z"></path><path class="st6" d="M797.8,115c0-5.8-.2-10.7-.4-14.9h12.6l.7,6.5h.3c1.9-3,6.6-7.5,14.4-7.5s16.7,6.3,16.7,20v27.6h-14.5v-25.8c0-6-2.1-10.1-7.4-10.1s-6.3,2.8-7.3,5.5c-.4.9-.5,2.3-.5,3.6v26.9h-14.5v-31.7h0Z"></path><path class="st6" d="M888.4,145.5c-2.6,1.2-7.5,2.2-13,2.2-15,0-24.6-9.2-24.6-23.8s9.3-24.7,26.6-24.7,8,.7,11,1.8l-2.3,10.8c-1.7-.8-4.3-1.5-8.1-1.5-7.7,0-12.6,5.4-12.5,13.1,0,8.5,5.7,13.1,12.7,13.1s6.1-.6,8.3-1.5l1.7,10.7.2-.2ZM878.6,146.3l-2.6,4.6c3.6.5,6.9,3,6.9,6.9,0,6.2-5.5,8.3-11.6,8.3s-5.8-.7-7.6-1.9l1.9-5.4c1.6,1,3.7,1.5,5.2,1.5s3.4-.6,3.4-2.4-2.2-3.1-7.4-3.5l4.1-8.2h7.7,0Z"></path><path class="st6" d="M923.3,146.7l-.9-4.6h-.3c-3,3.7-7.8,5.7-13.3,5.7-9.5,0-15.1-6.8-15.1-14.2,0-12.1,10.9-17.9,27.3-17.9v-.6c0-2.5-1.3-6-8.5-6s-9.7,1.6-12.8,3.5l-2.7-9.3c3.2-1.9,9.6-4.2,18.1-4.2,15.5,0,20.4,9.2,20.4,20.1v16.2c0,4.4.2,8.7.7,11.3h-13,0ZM921.5,124.7c-7.6,0-13.5,1.8-13.5,7.3s2.5,5.6,5.7,5.6,6.5-2.4,7.5-5.3c.2-.8.3-1.7.3-2.5v-5.1Z"></path></g><g><path class="st4" d="M291.8,148.7c0,41.7-17.8,79.2-46.2,105.3,0,0-184.7,8.4-193.9,0-28.4-26.2-46.2-63.7-46.2-105.3,0-79,64.1-143.1,143.1-143.1s143.1,64.1,143.1,143.1h0Z"></path><path class="st9" d="M291.8,148.7v-2l-104.7-104.7-31.5,167.3,47,46.5c25.1-.9,43.2-1.7,43.2-1.7,28.4-26.2,46.2-63.7,46.2-105.3h-.2Z"></path><g><path class="st0" d="M219.4,148.1c11.3-23.3-13.7-36.2-12.8-47.7.9-11.6.5-33.8-15.7-54.1-15-18.9-39.4-19-42.7-18.9-3.3,0-27.7,0-42.7,18.9-16.1,20.3-16.6,42.5-15.7,54.1s-24.1,24.4-12.8,47.7c11.3,23.3-16.1,30.4,9.4,53.1h123.4c25.5-22.7-1.9-29.8,9.4-53.1h.2Z"></path><path class="st3" d="M216.5,194.3c-1.6,2.2-3.8,4.5-6.6,7h-61.3V27.4c4.6,0,27.8.7,42.3,18.9,16.1,20.3,16.6,42.5,15.7,54.1-.9,11.6,24.1,24.4,12.7,47.7-10.1,20.8,10.5,28.7-2.8,46.1h0Z"></path><g><path class="st11" d="M172.2,193.7h0l-23.5,1.6-23.6-1.6v-50h47.1v50Z"></path><g><path class="st10" d="M172.2,193.7l-23.6,1.6v-51.6h23.5v50h.1Z"></path><path class="st2" d="M244.6,255c-25.4,22.9-59,36.9-95.9,36.9s-71.5-14.3-97-37.8l21.9-49.5c2.2-4.9,5.4-9.1,9.5-12.3,5.6-4.5,12.8-7.1,20.3-7.1h45.3l95.9,69.9h0Z"></path><path class="st13" d="M245.6,254c-.3.3-.7.6-1,.9-25.4,22.9-59,36.9-95.9,36.9v-106.7h23.5l48.6,14.1c1.1,1.6,2.1,3.4,2.9,5.2l21.9,49.5h0Z"></path><g><path class="st13" d="M105.3,238.5v46.7c-5.8-1.8-11.4-4-16.8-6.5v-40.2h16.8Z"></path><path class="st12" d="M208.8,238.5v40.2c-5.4,2.5-11,4.7-16.8,6.5v-46.7h16.8Z"></path></g></g><path class="st14" d="M188.9,83.4c-1.7-25.8-22.6-35.3-40.3-35.3s-38.6,9.6-40.2,35.4c-4.6.9-7.8,6.9-7.3,11.7l.8,11c.5,5.1,5,8.8,10,8.2h.9c7.8,20.9,19,27.3,28.4,29.9,5,1.4,10.2,1.4,15.2,0,9.4-2.6,20.6-9,28.4-30h.9c4.9.6,9.4-3.1,9.9-8.2l.8-11c.5-4.8-2.7-10.8-7.3-11.7h-.2Z"></path><path class="st11" d="M148.6,145.4c2.6,0,5.1-.3,7.6-1,9.4-2.6,20.6-9,28.4-30h.9c4.9.6,9.4-3.1,9.9-8.2l.8-11c.5-4.8-2.7-10.8-7.3-11.7-1.7-25.8-22.6-35.3-40.3-35.3v97.3h0Z"></path></g><path class="st3" d="M159.6,167.4h-21.9c-14.1,0-25.5-11.4-25.5-25.5v-27.5l72.9-.2v27.6c0,14.1-11.4,25.5-25.5,25.5h0Z"></path><path class="st1" d="M185.1,114.3v27.6c0,14.1-11.4,25.5-25.5,25.5h-11v-53h36.5Z"></path><path class="st14" d="M132.4,127.7h32.6v16.8h-32.6v-16.8Z"></path><path class="st5" d="M220.8,199.3l-91.3,91.3c-16.8-2.3-32.7-7.4-47.2-15l66.4-66.8,23.5-23.7h21.7c7.5,0,14.6,2.6,20.3,7.1h0c2.5,2,4.7,4.4,6.5,7h0Z"></path><path class="st8" d="M220.8,199.3l-72.1,72.1v-62.6l7.5-7.6,16-16.1h21.7c7.5,0,14.6,2.6,20.3,7.1h0c.8.6,1.6,1.3,2.3,2,1.6,1.5,3,3.2,4.2,5h0Z"></path><path class="st0" d="M148.6,39.2c-1-.3-44.5-11.3-40.3,44.2,24.9,1.4,40.3-21.4,40.3-21.4h0c28.4-11.7,40.2,21.4,40.2,21.4-1-40.6-39.3-44.5-40.3-44.2h.1Z"></path><path class="st3" d="M154.2,38.7c-3.1.2-5.3.4-5.6.5v22.8h0s15.4,22.8,40.3,21.4c7-.4,3.7-12.5-1.2-24.2-5.6-13.4-19.1-21.6-33.5-20.5h0Z"></path></g></g><path class="st9" d="M993.3,114.9l-6.3,6.3,15.7,15.7,31.4-31.4-6.3-6.3-25.1,25.1-9.4-9.4ZM1060.7,118.1l-9.2,11,2.4,14.1-13.4,4.9-4.9,13.4-14.1-2.4-11,9.2-11-9.2-14.1,2.4-4.9-13.4-13.4-4.9,2.4-14.1-9.2-11,9.2-11-2.4-14.1,13.4-4.9,4.9-13.4,14.1,2.4,11-9.2,11,9.2,14.1-2.4,4.9,13.4,13.4,4.9-2.4,14.1s9.2,11,9.2,11Z"></path><g><path class="st7" d="M333.6,218.7l-2.7,8.3h-3.5l8.9-26.3h4.1l9,26.3h-3.6l-2.8-8.3h-9.3ZM342.2,216.1l-2.6-7.6c-.6-1.7-1-3.3-1.4-4.8h0c-.4,1.6-.8,3.2-1.3,4.8l-2.6,7.6h7.9Z"></path><path class="st7" d="M361,223.5c1,.7,2.8,1.4,4.5,1.4,2.5,0,3.7-1.3,3.7-2.8s-1-2.5-3.5-3.5c-3.4-1.2-5-3.1-5-5.4s2.5-5.5,6.5-5.5,3.6.5,4.6,1.2l-.9,2.5c-.7-.5-2.1-1.1-3.9-1.1s-3.2,1.2-3.2,2.6,1.1,2.3,3.6,3.2c3.3,1.3,5,2.9,5,5.7s-2.6,5.7-7.1,5.7-4-.5-5.3-1.3l.9-2.6Z"></path><path class="st7" d="M392.7,221.8c0,2,0,3.7.2,5.2h-3l-.2-3.1h0c-.9,1.5-2.9,3.5-6.3,3.5s-6.5-1.6-6.5-8.3v-11.1h3.4v10.5c0,3.6,1.1,6,4.2,6s3.9-1.6,4.5-3.1c.2-.5.3-1.1.3-1.8v-11.6h3.4v13.7Z"></path><path class="st7" d="M408.9,227l-.3-2.4h-.1c-1.1,1.5-3.1,2.8-5.8,2.8-3.8,0-5.8-2.7-5.8-5.4,0-4.6,4.1-7.1,11.4-7v-.4c0-1.6-.4-4.4-4.3-4.4s-3.6.5-4.9,1.4l-.8-2.3c1.6-1,3.8-1.7,6.2-1.7,5.8,0,7.2,3.9,7.2,7.7v7.1c0,1.6,0,3.2.3,4.5h-3.1ZM408.4,217.4c-3.8,0-8,.6-8,4.3s1.5,3.3,3.2,3.3,4-1.6,4.6-3.2c.1-.4.2-.7.2-1.1v-3.3Z"></path><path class="st7" d="M425.4,227c0-1.3.2-3.2.2-4.9v-22.9h3.4v11.9h0c1.2-2.1,3.4-3.5,6.4-3.5,4.7,0,8,3.9,8,9.6,0,6.8-4.3,10.1-8.5,10.1s-4.9-1.1-6.3-3.6h-.1l-.2,3.1h-3ZM428.9,219.4c0,.4,0,.9.2,1.3.7,2.4,2.7,4,5.2,4,3.6,0,5.7-2.9,5.7-7.3s-2-7-5.6-7-4.5,1.6-5.2,4.2c0,.4-.2.9-.2,1.4v3.4Z"></path><path class="st7" d="M464.9,217.4c0,7-4.8,10-9.4,10s-9.1-3.8-9.1-9.7,4.1-10,9.4-10,9.1,3.9,9.1,9.7ZM449.9,217.6c0,4.1,2.4,7.3,5.7,7.3s5.7-3.1,5.7-7.3-1.6-7.3-5.7-7.3-5.8,3.7-5.8,7.3Z"></path><path class="st7" d="M469.2,213.2c0-2,0-3.6-.2-5.1h3l.2,3.1h0c.9-1.8,3.1-3.6,6.3-3.6s6.7,1.6,6.7,8v11.3h-3.4v-10.9c0-3-1.1-5.6-4.4-5.6s-4,1.6-4.6,3.5c-.2.4-.2,1-.2,1.6v11.4h-3.4v-13.8Z"></path><path class="st7" d="M507.2,199.3v22.9c0,1.7,0,3.6.2,4.9h-3.1l-.2-3.3h0c-1.1,2.1-3.4,3.7-6.4,3.7-4.6,0-8.1-3.9-8.1-9.6,0-6.3,3.9-10.2,8.5-10.2s4.8,1.4,5.7,2.9h0v-11.3h3.4ZM503.8,215.8c0-.4,0-1-.2-1.4-.5-2.2-2.4-4-5-4s-5.7,3.1-5.7,7.3,1.9,7,5.6,7,4.4-1.5,5-4.1c.1-.5.2-.9.2-1.5v-3.3Z"></path><path class="st7" d="M523.4,227l-.3-2.4h-.1c-1.1,1.5-3.1,2.8-5.8,2.8-3.8,0-5.8-2.7-5.8-5.4,0-4.6,4.1-7.1,11.4-7v-.4c0-1.6-.4-4.4-4.3-4.4s-3.6.5-4.9,1.4l-.8-2.3c1.6-1,3.8-1.7,6.2-1.7,5.8,0,7.2,3.9,7.2,7.7v7.1c0,1.6,0,3.2.3,4.5h-3.1ZM522.9,217.4c-3.8,0-8,.6-8,4.3s1.5,3.3,3.2,3.3,4-1.6,4.6-3.2c.1-.4.2-.7.2-1.1v-3.3Z"></path><path class="st7" d="M548.1,199.3v22.9c0,1.7,0,3.6.2,4.9h-3.1l-.2-3.3h0c-1.1,2.1-3.4,3.7-6.4,3.7-4.6,0-8.1-3.9-8.1-9.6,0-6.3,3.9-10.2,8.5-10.2s4.8,1.4,5.7,2.9h0v-11.3h3.4ZM544.6,215.8c0-.4,0-1-.2-1.4-.5-2.2-2.4-4-5-4s-5.7,3.1-5.7,7.3,1.9,7,5.6,7,4.4-1.5,5-4.1c.1-.5.2-.9.2-1.5v-3.3Z"></path><path class="st7" d="M555.7,218.2c0,4.6,3,6.6,6.5,6.6s3.9-.4,5.2-1l.6,2.5c-1.2.5-3.3,1.2-6.3,1.2-5.8,0-9.3-3.8-9.3-9.5s3.4-10.2,8.9-10.2,7.8,5.4,7.8,8.9,0,1.3-.1,1.6h-13.3ZM565.8,215.7c0-2.2-.9-5.6-4.8-5.6s-5,3.2-5.3,5.6h10Z"></path><path class="st7" d="M581.6,214.3c0-2.4,0-4.4-.2-6.2h3.1l.2,3.2h0c1.4-2.3,3.6-3.7,6.7-3.7,4.6,0,8,3.9,8,9.6s-4.1,10.2-8.6,10.2-4.7-1.1-5.8-3h0v10.3h-3.4v-20.5ZM585,219.3c0,.5,0,1,.2,1.4.6,2.4,2.7,4,5.2,4,3.6,0,5.7-3,5.7-7.3s-2-7-5.6-7-4.5,1.7-5.2,4.3c-.1.4-.2.9-.2,1.4v3.2Z"></path><path class="st7" d="M621,217.4c0,7-4.8,10-9.4,10s-9.1-3.8-9.1-9.7,4.1-10,9.4-10,9.1,3.9,9.1,9.7ZM606,217.6c0,4.1,2.4,7.3,5.7,7.3s5.7-3.1,5.7-7.3-1.6-7.3-5.7-7.3-5.8,3.7-5.8,7.3Z"></path><path class="st7" d="M641.6,199.3v22.9c0,1.7,0,3.6.2,4.9h-3.1l-.2-3.3h0c-1.1,2.1-3.4,3.7-6.4,3.7-4.6,0-8.1-3.9-8.1-9.6,0-6.3,3.9-10.2,8.5-10.2s4.8,1.4,5.7,2.9h0v-11.3h3.4ZM638.2,215.8c0-.4,0-1-.2-1.4-.5-2.2-2.4-4-5-4s-5.7,3.1-5.7,7.3,1.9,7,5.6,7,4.4-1.5,5-4.1c.1-.5.2-.9.2-1.5v-3.3Z"></path><path class="st7" d="M649.3,218.2c0,4.6,3,6.6,6.5,6.6s3.9-.4,5.2-1l.6,2.5c-1.2.5-3.3,1.2-6.3,1.2-5.8,0-9.3-3.8-9.3-9.5s3.4-10.2,8.9-10.2,7.8,5.4,7.8,8.9,0,1.3-.1,1.6h-13.3ZM659.3,215.7c0-2.2-.9-5.6-4.8-5.6s-5,3.2-5.3,5.6h10Z"></path><path class="st7" d="M675.2,213.2c0-2,0-3.6-.2-5.1h3l.2,3h.1c1.1-1.8,2.8-3.5,5.9-3.5s4.5,1.6,5.4,3.8h0c.6-1.1,1.3-1.9,2.1-2.5,1.1-.9,2.4-1.3,4.2-1.3s6.2,1.6,6.2,8.2v11.1h-3.4v-10.7c0-3.6-1.3-5.8-4.1-5.8s-3.5,1.4-4.1,3.1c-.2.5-.3,1.1-.3,1.7v11.7h-3.4v-11.3c0-3-1.3-5.2-3.9-5.2s-3.7,1.7-4.3,3.4c-.2.5-.3,1.1-.3,1.7v11.4h-3.4v-13.8Z"></path><path class="st7" d="M723.6,221.8c0,2,0,3.7.2,5.2h-3l-.2-3.1h0c-.9,1.5-2.9,3.5-6.3,3.5s-6.5-1.6-6.5-8.3v-11.1h3.4v10.5c0,3.6,1.1,6,4.2,6s3.9-1.6,4.5-3.1c.2-.5.3-1.1.3-1.8v-11.6h3.4v13.7Z"></path><path class="st7" d="M745.6,199.3v22.9c0,1.7,0,3.6.2,4.9h-3.1l-.2-3.3h0c-1.1,2.1-3.4,3.7-6.4,3.7-4.6,0-8.1-3.9-8.1-9.6,0-6.3,3.9-10.2,8.5-10.2s4.8,1.4,5.7,2.9h0v-11.3h3.4ZM742.2,215.8c0-.4,0-1-.2-1.4-.5-2.2-2.4-4-5-4s-5.7,3.1-5.7,7.3,1.9,7,5.6,7,4.4-1.5,5-4.1c.1-.5.2-.9.2-1.5v-3.3Z"></path><path class="st7" d="M761.8,227l-.3-2.4h-.1c-1.1,1.5-3.1,2.8-5.8,2.8-3.8,0-5.8-2.7-5.8-5.4,0-4.6,4.1-7.1,11.4-7v-.4c0-1.6-.4-4.4-4.3-4.4s-3.6.5-4.9,1.4l-.8-2.3c1.6-1,3.8-1.7,6.2-1.7,5.8,0,7.2,3.9,7.2,7.7v7.1c0,1.6,0,3.2.3,4.5h-3.1ZM761.3,217.4c-3.8,0-8,.6-8,4.3s1.5,3.3,3.2,3.3,4-1.6,4.6-3.2c.1-.4.2-.7.2-1.1v-3.3Z"></path><path class="st7" d="M770.2,214c0-2.2,0-4.1-.2-5.9h3v3.7h.3c.9-2.5,2.9-4.1,5.2-4.1s.7,0,1,.1v3.2c-.4,0-.7-.1-1.2-.1-2.4,0-4.1,1.8-4.6,4.4,0,.5-.2,1-.2,1.6v10.1h-3.4v-13Z"></path><path class="st7" d="M795.4,202.7v5.4h4.9v2.6h-4.9v10.2c0,2.3.7,3.7,2.6,3.7s1.6-.1,2-.2l.2,2.6c-.7.3-1.7.5-3,.5s-2.9-.5-3.7-1.4c-1-1-1.3-2.7-1.3-4.9v-10.3h-2.9v-2.6h2.9v-4.5l3.4-.9Z"></path><path class="st7" d="M820,221.8c0,2,0,3.7.2,5.2h-3l-.2-3.1h0c-.9,1.5-2.9,3.5-6.3,3.5s-6.5-1.6-6.5-8.3v-11.1h3.4v10.5c0,3.6,1.1,6,4.2,6s3.9-1.6,4.5-3.1c.2-.5.3-1.1.3-1.8v-11.6h3.4v13.7Z"></path><path class="st7" d="M842,199.3v22.9c0,1.7,0,3.6.2,4.9h-3.1l-.2-3.3h0c-1.1,2.1-3.4,3.7-6.4,3.7-4.6,0-8.1-3.9-8.1-9.6,0-6.3,3.9-10.2,8.5-10.2s4.8,1.4,5.7,2.9h0v-11.3h3.4ZM838.6,215.8c0-.4,0-1-.2-1.4-.5-2.2-2.4-4-5-4s-5.7,3.1-5.7,7.3,1.9,7,5.6,7,4.4-1.5,5-4.1c.1-.5.2-.9.2-1.5v-3.3Z"></path><path class="st7" d="M864.8,217.4c0,7-4.8,10-9.4,10s-9.1-3.8-9.1-9.7,4.1-10,9.4-10,9.1,3.9,9.1,9.7ZM849.8,217.6c0,4.1,2.4,7.3,5.7,7.3s5.7-3.1,5.7-7.3-1.6-7.3-5.7-7.3-5.8,3.7-5.8,7.3Z"></path><path class="st7" d="M877.4,213.2c0-2,0-3.6-.2-5.1h3l.2,3.1h0c.9-1.8,3.1-3.6,6.2-3.6s6.7,1.6,6.7,8v11.3h-3.4v-10.9c0-3-1.1-5.6-4.4-5.6s-4,1.6-4.6,3.5c-.2.4-.2,1-.2,1.6v11.4h-3.4v-13.8Z"></path><path class="st7" d="M916.2,217.4c0,7-4.8,10-9.4,10s-9.1-3.8-9.1-9.7,4.1-10,9.4-10,9.1,3.9,9.1,9.7ZM901.2,217.6c0,4.1,2.4,7.3,5.7,7.3s5.7-3.1,5.7-7.3-1.6-7.3-5.7-7.3-5.8,3.7-5.8,7.3Z"></path><path class="st7" d="M951.2,215.4c-.2-3.7-.4-8.1-.4-11.4h-.1c-.9,3.1-2,6.4-3.3,10l-4.6,12.8h-2.6l-4.3-12.5c-1.2-3.7-2.3-7.1-3-10.2h0c0,3.3-.3,7.7-.5,11.6l-.7,11.3h-3.2l1.8-26.3h4.3l4.5,12.7c1.1,3.2,2,6.1,2.7,8.9h.1c.7-2.7,1.6-5.5,2.8-8.9l4.7-12.7h4.3l1.6,26.3h-3.3l-.7-11.6Z"></path><path class="st7" d="M976.2,221.8c0,2,0,3.7.2,5.2h-3l-.2-3.1h0c-.9,1.5-2.9,3.5-6.3,3.5s-6.5-1.6-6.5-8.3v-11.1h3.4v10.5c0,3.6,1.1,6,4.2,6s3.9-1.6,4.5-3.1c.2-.5.3-1.1.3-1.8v-11.6h3.4v13.7Z"></path><path class="st7" d="M981.9,213.2c0-2,0-3.6-.2-5.1h3l.2,3.1h0c.9-1.8,3.1-3.6,6.2-3.6s6.7,1.6,6.7,8v11.3h-3.4v-10.9c0-3-1.1-5.6-4.4-5.6s-4,1.6-4.6,3.5c-.2.4-.2,1-.2,1.6v11.4h-3.4v-13.8Z"></path><path class="st7" d="M1019.9,199.3v22.9c0,1.7,0,3.6.2,4.9h-3.1l-.2-3.3h0c-1.1,2.1-3.4,3.7-6.4,3.7-4.6,0-8.1-3.9-8.1-9.6,0-6.3,3.9-10.2,8.5-10.2s4.8,1.4,5.7,2.9h0v-11.3h3.4ZM1016.5,215.8c0-.4,0-1-.2-1.4-.5-2.2-2.4-4-5-4s-5.7,3.1-5.7,7.3,1.9,7,5.6,7,4.4-1.5,5-4.1c.1-.5.2-.9.2-1.5v-3.3Z"></path><path class="st7" d="M1042.7,217.4c0,7-4.8,10-9.4,10s-9.1-3.8-9.1-9.7,4.1-10,9.4-10,9.1,3.9,9.1,9.7ZM1027.7,217.6c0,4.1,2.4,7.3,5.7,7.3s5.7-3.1,5.7-7.3-1.6-7.3-5.7-7.3-5.8,3.7-5.8,7.3Z"></path><path class="st7" d="M1046.4,225c0-1.4,1-2.4,2.3-2.4s2.3,1,2.3,2.4-.9,2.4-2.3,2.4-2.3-1.1-2.3-2.4ZM1047.4,219.4l-.5-18.7h3.7l-.5,18.7h-2.7Z"></path></g></svg>