<svg xmlns="http://www.w3.org/2000/svg" id="Camada_1" viewBox="0 0 1080 1080"><defs><style>      .st0 {        fill: #c2c1c1;      }      .st1 {        fill: #7a3610;      }      .st2 {        fill: #a6dbf8;      }      .st3 {        fill: #fff;      }      .st4 {        fill: #c15d17;      }      .st5 {        fill: #f8b886;      }      .st6 {        fill: #e94c4d;      }      .st7 {        fill: #fcd3ac;      }      .st8 {        fill: #c1172b;      }      .st9 {        fill: #e2e1e1;      }      .st10 {        fill: #64b6e6;      }      .st11 {        fill: #9c4816;      }      .st12 {        fill: #f5a168;      }    </style></defs><path class="st2" d="M1035.3,535.5c0,143.1-61.1,271.9-158.7,361.8,0,0-634.7,29-666.2,0-97.5-89.9-158.7-218.7-158.7-361.8,0-271.6,220.2-491.8,491.8-491.8s491.8,220.2,491.8,491.8h0Z"></path><path class="st10" d="M1035.3,535.5c0-2.3,0-4.6,0-6.9l-359.9-359.9-108.4,574.8,161.3,159.6c86.2-3,148.3-5.8,148.3-5.8,97.6-89.9,158.7-218.7,158.7-361.8h0Z"></path><g><path class="st4" d="M786.5,533.5c38.9-80.2-47.1-124.3-43.8-164,3.2-39.8,1.6-116-53.8-185.8-51.6-64.9-135.4-65.2-146.8-64.9-11.4-.3-95.3,0-146.8,64.9-55.4,69.8-57,146-53.8,185.8,3.2,39.8-82.8,83.8-43.8,164,38.9,80.2-55.2,104.6,32.5,182.4h424c87.6-77.9-6.5-102.2,32.5-182.4h0Z"></path><path class="st11" d="M776.8,692c-5.6,7.4-13.1,15.3-22.7,23.9h-210.6V118.7c15.7-.2,95.6,2.3,145.4,65,55.4,69.8,57.1,146,53.8,185.8-3.2,39.7,82.7,83.8,43.8,164-34.7,71.4,36.1,98.5-9.7,158.5Z"></path><g><path class="st5" d="M624.4,690.1v.2c0,0-80.9,5.5-80.9,5.5l-81-5.5-.2-171.7,161.9-.2.2,171.7Z"></path><g><path class="st12" d="M624.4,690.1l-80.9,5.7v-177.3h80.8c0,0,.2,153.5.2,153.5v18.2Z"></path><path class="st3" d="M873,900.6c-87.2,78.8-202.8,126.7-329.5,126.7s-245.5-49.3-333.1-130l75.3-170.2c7.4-16.8,18.7-31.1,32.5-42.1,19.4-15.5,43.8-24.4,69.7-24.4h155.6l329.5,240Z"></path><path class="st9" d="M876.6,897.3c-1.2,1.1-2.4,2.2-3.6,3.2-87.2,78.8-202.8,126.7-329.5,126.7v-366.7h80.9l166.9,48.6c3.9,5.6,7.2,11.6,10,18l75.3,170.2Z"></path><g><path class="st9" d="M394.6,843.9v160.4c-19.8-6.3-39-13.8-57.6-22.4v-138h57.6Z"></path><path class="st0" d="M750.1,843.9v138c-18.6,8.6-37.8,16.1-57.6,22.4v-160.4h57.6Z"></path></g></g><path class="st7" d="M681.8,311.1c-5.9-88.7-77.7-121.4-138.5-121.4-60.7,0-132.5,32.9-138.2,121.7-15.7,3.1-26.8,23.7-25.1,40.3l2.7,37.9c1.9,17.5,17.2,30.2,34.2,28.3l2.9-.3c26.9,72,65.4,94.1,97.5,103,17.1,4.7,35.1,4.7,52.2,0,32.2-8.9,70.9-31.1,97.7-103.2l2.9.3c16.9,1.9,32.3-10.9,34.1-28.4l2.7-37.9c1.7-16.7-9.4-37.2-25.1-40.3h0Z"></path><path class="st5" d="M543.5,524.1c8.8,0,17.5-1.2,26.1-3.6,32.2-8.9,70.9-31.1,97.7-103.2l2.9.3c16.9,1.9,32.3-10.9,34.1-28.4l2.7-37.9c1.7-16.7-9.4-37.2-25.1-40.3-5.9-88.6-77.6-121.4-138.3-121.4v334.4h0Z"></path></g><path class="st11" d="M581.2,599.7h-75.3c-48.3,0-87.5-39.2-87.5-87.5v-94.4l250.3-.6v94.9c0,48.3-39.2,87.5-87.5,87.5h0Z"></path><path class="st1" d="M668.7,417.3v94.9c0,48.3-39.2,87.5-87.5,87.5h-37.7v-182.2l125.2-.3Z"></path><path class="st7" d="M487.6,463.3h111.9v57.6h-111.9v-57.6Z"></path><path class="st6" d="M791.3,709.2l-313.8,313.8c-57.8-7.7-112.5-25.5-162.1-51.6l228.1-229.4,80.9-81.4h74.7c25.9,0,50.3,8.9,69.7,24.4h0c8.6,6.8,16.2,14.9,22.5,24.1Z"></path><path class="st8" d="M791.3,709.2l-247.8,247.8v-215l25.9-26,55-55.3h74.7c25.9,0,50.3,8.9,69.7,24.4h0c2.8,2.2,5.4,4.6,8,7,5.4,5.1,10.2,10.9,14.5,17.1Z"></path><path class="st4" d="M543.5,159.4c-3.4-.9-152.8-38.7-138.4,151.9,85.4,5,138.4-73.4,138.5-73.5h0c97.6-40.3,138.3,73.5,138.3,73.5-3.4-139.6-134.9-152.8-138.3-151.9Z"></path><path class="st11" d="M562.7,157.7c-10.7.8-18.4,1.5-19.2,1.7v78.4s0,0,0,0h0s0,0,0,0c0,0,0,0,0,0,0,0,53,78.5,138.5,73.5,24.1-1.4,12.8-42.9-4.1-83.2-19.2-45.9-65.7-74.3-115.3-70.4h0Z"></path></g></svg>