<svg xmlns="http://www.w3.org/2000/svg" xmlns:xlink="http://www.w3.org/1999/xlink" id="Camada_1" viewBox="0 0 1080 300"><defs><style>      .st0 {        fill: #9b4600;      }      .st1 {        fill: #ffb985;      }      .st2 {        fill: #025432;      }      .st3 {        fill: #c15c00;      }      .st4 {        fill: #5d3f3b;      }      .st5 {        fill: #fff;      }      .st6 {        fill: #c10a29;      }      .st7 {        fill: #606060;      }      .st8, .st9 {        fill: #4dbbff;      }      .st10 {        fill: #e2e2e2;      }      .st11 {        fill: #24ca68;      }      .st12 {        fill: #f9a;      }      .st13 {        fill: #ffc8b7;      }      .st14 {        fill: #ffcfb5;      }      .st15 {        fill: #f9a267;      }      .st16 {        fill: #ede0d4;      }      .st17 {        fill: #ffe3d6;      }      .st18 {        fill: #a67c52;      }      .st19 {        fill: #a1e2ff;      }      .st20 {        fill: #c1c1c1;      }      .st21 {        fill: #ffd3ab;      }      .st22 {        fill: #ff4848;      }      .st23 {        fill: #dbdcdd;      }      .st24 {        fill: #9aa0a5;      }      .st9 {        fill-rule: evenodd;      }      .st25 {        fill: #8c6239;      }      .st26 {        fill: #7a3400;      }      .st27 {        fill: #754c24;      }    </style></defs><g id="Camada_2"><g id="Camada_1-2"><g id="Camada_1-21"><rect class="st8" x="321.7" y="51.6" width="29.6" height="134.5"></rect><path class="st9" d="M438.6,113.9v-1.4c-.5-2.7-2.1-5.1-4.4-6.8-2.2-1.4-5.8-2.2-10.5-2.2s-6.1.4-9.1,1.4c-3,1.2-5.7,2.6-8.3,4.4v77h-26.8v-103c4.3-.8,8.6-1.1,13-1.1,5-.3,9.4-.8,13.8-.8v10.5h1.4c3.9-5,8.3-8.3,12.7-9.7,4.5-1.3,9.1-2,13.8-1.8,3.5,0,7,.3,10.5,1.1,3.3,1.1,6.5,2.2,9.1,4.4,3,2,5.4,4.6,7.2,7.5,2.1,3.5,3.4,7.2,3.9,11.2.4,1.3.7,2.6.8,3.9v47c0,.3.3,1.1.3,1.4.3,1.4.8,2.5,1.9,3.3.8.8,2.2,1.1,3.9,1.1h11.9v9.1c0,6.8-1.9,11.6-4.7,14.1-3.3,2.5-7.5,3.9-13,3.9-8.3,0-14.4-2.2-18.5-6.5-4.4-4.5-7.1-10.2-8-16.3-.4-1.6-.7-3.4-.8-5,0-1.9,0-3.6-.3-5.5l.4-39.5c0-.7,0-1.2-.3-1.8"></path><path class="st9" d="M556.2,83c.3,3.6,0,7.2,0,11.6s-.3,8.5-1.1,12.7c-2-.7-4-1.2-6.1-1.4-2.5-.7-5-1.2-7.5-1.4l-7.5-1.1h-6.9c-3.9,0-6.5.3-8.3,1.9s-2.5,3.6-1.8,7.2c.5,2.3,2,4.3,3.9,5.5,2.4,1.5,4.9,2.7,7.5,3.6,3.3,1.4,6.7,2.6,10.1,3.6,3.6,1.4,7,3.3,10.2,5.5,3.2,2.3,6,5.1,8.3,8.3,2.5,3.3,4.4,7.5,5.5,13,1.8,11.3-.3,19.9-7.2,26.8-6.9,6.5-17.4,9.7-31.5,9.7s-12.1-.8-18-2.2c-5.4-1.2-10.6-3.1-15.6-5.5,0-2.2.3-4.4.3-6.5.3-2.5.3-4.7.8-6.8.3-1.8,1.1-3.9,1.4-5.8.2-1.8.7-3.5,1.4-5,4.7,2.4,9.7,4.3,14.9,5.5,5.4,1.4,10.8,2.1,16.3,2.2,7.5,0,10.5-3.3,9.4-9.4-.3-2.2-1.6-4-3.6-5-2.5-1.5-5.1-2.7-8-3.6-3-1.1-6.1-2.2-9.7-3.6-3.6-1.2-7-2.8-10.2-5-3.4-2.2-6.3-5-8.6-8.3-2.7-3.7-4.5-8.1-5-12.7-1-4.7-.9-9.5.3-14.1,1.2-4.4,3.4-8.3,6.5-11.6,3.3-3.3,7.5-5.8,13.3-7.5,5.5-2.2,11.9-3,19.5-3h6.1c2.2.3,4.7.3,7.2.8,2.2.3,4.7.3,7.2,1.1,2.2.3,4.7.8,6.5,1.1"></path><path class="st9" d="M638.2,94c0,3.9-.4,7.8-1.4,11.6h-25.4v48.8c.3.3.3.8.3,1.4.8,3,1.9,5,3.9,6.1,1.9,1.1,5,1.4,8.6,1.4s5.6-.3,8.3-.8c2.3-.5,4.6-1.3,6.9-2.2l1.1,4.4c.4,1.6.7,3.4.8,5,.7,2.4,1.1,4.8,1.4,7.2,0,2.5.3,4.7.3,6.8-1.6.8-3.3,1.4-5,1.8-2.1.7-4.3,1.1-6.5,1.4-2.1.4-4,.7-6.1.8-1.6.3-3.4.4-5,.3-10.5,0-18.5-2.5-24.3-7.2s-9.4-11.6-11.3-20.2c0-1.4-.3-3.3-.3-4.7s-.3-3.3-.3-5v-45.5h-11.6v-23.5h11.6v-21.7c4.5-1.2,9.1-2.2,13.8-3s9.4-1.1,13.3-1.4v26h26.8c.3,3.9.3,8,0,11.9"></path><path class="st9" d="M703.7,170.2h0c0,6.8-1.8,11.6-4.7,14.1-3.3,2.5-7.5,3.9-13,3.9-8.3,0-14.4-2.2-18.5-6.5-4.4-4.5-7.1-10.2-8-16.3-.4-1.6-.7-3.4-.8-5v-5.5l-.3-73.1h27.1v73.4c0,.3.3,1.1.3,1.4.3,1.4.8,2.5,1.8,3.3.8.8,2.2,1.1,3.9,1.1h11.9v9.1h.2ZM686.7,52c1.1,5.8.3,10.2-2.5,13.3-2.5,3.3-6.5,5-12.3,5s-7.5-1.1-10.2-3.6c-2.5-2.4-4.2-5.6-4.7-9.1-1.1-4.5,0-9.3,2.5-13,2.5-3.6,6.9-5.5,12.3-5.5s7.5,1.1,10.2,3.6c2.5,2.4,4.2,5.6,4.7,9.1"></path><path class="st9" d="M773.1,94c0,3.9-.4,7.8-1.4,11.6h-25.4v48.8c0,.3.3.8.3,1.4.2,2.6,1.6,4.9,3.9,6.1,1.8,1.1,4.7,1.4,8.6,1.4s5.4-.3,8-.8c2.4-.5,4.9-1.3,7.2-2.2l1.1,4.4c.3,1.4.3,3.3.8,5,.3,2.5,1.1,4.7,1.1,7.2.4,2.3.7,4.5.8,6.8-1.8.9-3.5,1.5-5.5,1.8-2,.7-4,1.2-6.1,1.4-2.1.4-4,.7-6.1.8-1.8.3-3.6.4-5.5.3-10.2,0-18.5-2.5-24.3-7.2s-9.4-11.6-10.8-20.2c-.3-1.5-.4-3.2-.3-4.7-.3-1.6-.4-3.4-.3-5v-45.5h-11.9l.3-23.5h11.6v-21.7c4.5-1.2,9.1-2.2,13.8-3s9.1-1.1,13.3-1.4v26h26.8c.3,3.9.3,8,0,11.9"></path><path class="st9" d="M853,173.2c-3.1,4.5-7,8.2-11.6,11.3-3.9,2.5-9.7,3.9-17.4,3.9s-7.1-.7-10.5-1.8c-3.4-.9-6.6-2.4-9.4-4.4-2.8-2.2-5.3-4.9-7.2-8-2.1-3.4-3.5-7.2-4-11.2-.5-2.5-.9-5-.8-7.5l-.3-72.7c4.4-.3,8.6-.8,13.3-1.1s9.4-.3,13.8-.3v72.3c0,.3.3.8.3,1.4.8,3.3,2.2,5.8,4.7,7.2,2.2,1.8,6.1,2.5,11.3,2.5s5.6-.4,8.3-1.1c2.8-.3,5.6-1.3,8-3v-78.1c3.9-.3,8.3-.8,13-1.1,4.7-.3,9.4-.3,13.8-.3v72c0,.8,0,1.5.3,2.2v1.4c.3,1.2.9,2.3,1.8,3.3.8.8,2.2,1.1,3.9,1.1h11.9v9.1c0,6.8-1.4,11.6-4.7,14.1-3,2.5-7.2,3.9-13,3.9s-11.9-1.4-15.6-3.9c-3.9-2.8-7-6.7-8.6-11.3h-1.4.2Z"></path><path class="st9" d="M966.3,94c0,3.9-.4,7.8-1.4,11.6h-25.4v48.8c0,.3.3.8.3,1.4.2,2.6,1.6,4.9,3.9,6.1,1.9,1.1,4.7,1.4,8.6,1.4s5.4-.3,8-.8c2.4-.5,4.8-1.3,7.2-2.2l1.1,4.4c.3,1.4.3,3.3.8,5,.3,2.5.8,4.7,1.1,7.2.4,2.3.7,4.5.8,6.8-1.8.9-3.5,1.5-5.5,1.8-2,.7-4,1.2-6.1,1.4-2.1.4-4,.7-6.1.8-1.8.3-3.6.4-5.5.3-10.2,0-18.5-2.5-24.3-7.2-5.8-4.7-9.4-11.6-10.8-20.2-.3-1.5-.4-3.2-.3-4.7-.3-1.6-.4-3.4-.3-5v-45.5h-11.9l.4-23.5h11.6v-21.7c4.5-1.2,9.1-2.2,13.8-3s9.1-1.1,13.3-1.4v26h26.8c.3,3.9.3,8,0,11.9"></path><path class="st9" d="M1075.9,127.9c-.3-2.5-.8-5-1.1-7.2-.9-6.5-3-12.7-6.1-18.5-2.7-4.8-6.5-9-10.8-12.3-4.4-3.6-9.1-5.8-14.4-7.5-4.9-1.4-10.1-2.2-15.2-2.2h-2.5c-6.5,0-12.8,1-18.8,3.3-5.5,2.4-10.4,5.8-14.4,10.2-4,4.9-7.1,10.6-9.1,16.6-2.3,7.2-3.4,14.8-3.3,22.4,0,2.6,0,5.4.3,8,.3,2.5.8,5,1.1,7.2,2.2,13.8,7.5,23.8,16.3,30.4,8,6.5,18.5,9.7,30.4,10.2h1.9c6.5,0,12.8-1,18.8-3.3,5.6-2.2,10.5-5.6,14.4-10.2,4.3-4.7,7.4-10.3,9.4-16.3,2.2-6.5,3.3-14.1,3.6-22.8,0-2.6,0-5.4-.3-8M1042.2,158.4c-3,4.7-7.5,7.2-14.1,7.2s-9.1-1.4-11.6-3.9c-3-2.5-4.7-7.2-5.8-13.3-.3-1.9-.8-3.9-1.1-6.5,0-2.2-.3-4.7-.3-7.5,0-11.3,1.4-19.1,4.4-23.8,3.3-5,7.5-7.2,13.8-7.2h.8c4.7,0,8.6,1.4,11.6,4.4,2.8,3,5,7.5,6.1,14.1.8,4.2,1.1,8.4,1.1,12.7,0,11.6-1.4,19.5-4.7,24.3"></path></g></g></g><g><ellipse class="st16" cx="96.8" cy="-394.1" rx="17.4" ry="95.9" transform="translate(483.3 -270.2) rotate(-86)"></ellipse><path class="st17" d="M169.3-604.9s-17-6.4-35.6-1.3l-49.3,50.4s-12.6.8-12.5,14.3c.1,13.5,13.3,20.8,13.3,20.8,0,0,.1,27.4,56,40.9,0,0,51.5,11.1,66.7-11.3,0,0,14.4,1.2,19.8-9.4,5.4-10.6,2.6-19.3-3.4-21.5l-19.6-67.8s-21.4-15-35.6-15Z"></path><path class="st13" d="M169.3-604.9s-17-6.4-35.6-1.3l-48.2,49.3-.3,35.4c.4,6.8,8.7,17,15.2,24,2.4,1.9,5.2,3.7,8.4,5.5l1.7-4.8c-19.6-12.8-21.1-57.3-21.1-57.3,8.8-1.2,23-24.9,23-24.9,21.4-.8,23.1-21.8,23.1-21.8,7.3-6.8,34.9-2.4,34.9-2.4l.4-1.5c-.5,0-1.1,0-1.6,0Z"></path><path class="st13" d="M170.5-608s18.1,2,32.3,15l20.5,65.9-15.8,31.6c-3.5,5.9-15.5,11.2-24.5,14.4-3,.6-6.3,1-10,1.1l.7-5.1c23.3-2.4,44.8-41.4,44.8-41.4-7.3-5.1-9.2-32.7-9.2-32.7-18.7-10.4-10.6-29.9-10.6-29.9-3.4-9.4-30-18.1-30-18.1l.3-1.5c.5.2,1,.4,1.5.7Z"></path><path class="st25" d="M245.7-551.4s14.9-20.2,3.6-39.7c0,0-6.1-44.4-68.1-59.3-62-14.9-87.6,21.8-87.6,21.8-18.9,12.2-14.8,37-14.8,37-23.2,29-13.9,42.9-13.9,42.9-7.9,41.3,12.8,48.6,12.8,48.6,5.6,4.5,9.6,2.8,9.6,2.8,2.4,1.6,7.6,1.8,7.6,1.8,13.3,8.1,15.6,4.4,15.6,4.4,5.9,3.9,29.5,10.9,29.5,10.9,0,0,24.7,4.6,31.7,3.9,0,0,.4,4.4,15.9,3.2,0,0,4.6,2.2,7.6,1.8,0,0,3.6,2.2,10.7.8,0,0,20.6-2,32.7-36.3,0,0,14.6-8.1,7.1-44.5ZM83.2-522.3c-1.1.6-2.3.2-3.1-.8-2.1-2.6-4.8-4.9-6.7-7.7-1.7-2.6-1.9-5.7-1.6-8.8.3-2.9,1-6.1,2.4-8.7,1.6-3,4.2-5.3,7-7.3,2.5-1.8,5.2,2.1,2.9,4,.2.4.3.9.2,1.4-.6,2.3-.8,4.4-.2,6.7.3,1,.5,2,.4,3.1,0,1.1-.2,2.1,0,3.2.1,1.1.5,2.2.7,3.2.2,1.2.3,2.3.1,3.5-.2,1.5-1.6,3.6-.8,5.1.5,1.1-.3,2.5-1.2,3ZM163.8-482.5c-1.8.5-3.4-.4-5.2-.4-2.2,0-4.3-.3-6.4-.6-2-.3-4.1-.4-6.1-.7-4.2-.7-8.1-2-12.1-3.3-2.1-.7-4.1-1.3-6.2-1.9-2.1-.6-4.3-1.2-6.3-2.1-.5-.2-.8-.5-1-.9-.5.4-.9,0-1.6-.2-1.2-.2-2.6-.9-2.3-2.1.6-2.4,1.9-4.4,3.4-6.4,1.2-1.6,2.3-3.2,3.7-4.7,1.4-1.5,3-2.9,4.9-3.8,1.9-1,4-1.4,6.2-1.5,3.8-.3,7.6.3,11.3,1.4,3.6,1,7.1,2.4,10.3,4.3,3.3,1.9,6.2,4.4,7.9,7.9,1.7,3.5,1.6,7.2,2,10.9.2,1.9-.4,3.9-2.4,4.5ZM174.2-480.5s6.9-28.6-25.3-36.3c-32.2-7.8-38.6,20.9-38.6,20.9-28.2-18.2-20.9-61.1-20.9-61.1,4.4-2,12.7-15,12.7-15l9.9-11.1c18.6-1.2,21-22.8,21-22.8,11.7-5.7,37.4.2,37.4.2,0,0,26,6.5,33.9,16.9,0,0-7.7,20.4,8.3,29.9l3.8,14.3s1.5,15.3,4.4,19.2c0,0-13.1,41.5-46.4,44.9ZM228.4-501.8c-1.1,2.8-2.7,5.5-5.4,7.1-2.9,1.7-6.4,2.4-9.5,3.8-1.1.5-2.4.3-3.1-.7-.6-.9-.7-2.5.3-3.2,1.3-1,1-3.5,1.6-4.9.4-1.1,1-2.1,1.7-3.1.7-.9,1.5-1.6,2.1-2.6.6-.9.9-1.9,1.4-2.9.4-1,1.1-1.8,1.8-2.6,1.6-1.8,2.4-3.7,2.9-6.1.1-.5.4-.9.8-1.2-1.3-2.7,2.9-5,4.3-2.2,1.5,3,2.8,6.2,2.9,9.6,0,2.9-.8,6.1-1.8,8.8Z"></path><path class="st13" d="M84.5-524.5c-.7-1.7.4-3.5,0-5.3-.5-2-2.3-3.4-4-4.6-.8-.6-2.1,0-2.6.7-.5,1,0,2,.7,2.6,1.2.9,2.3,1.7,2.1,3.3-.2,1.5-.4,2.9.1,4.4.4.9,1.3,1.6,2.3,1.3.9-.3,1.6-1.4,1.3-2.3Z"></path><path class="st13" d="M219.4-501.8c-2.2-.4-4.1.4-5.7,1.9-.8.8-1.4,1.7-2,2.7-.4.7-1,2.5-1.7,2.9-2.1,1.1-.2,4.4,2,3.2,1.6-.9,2.3-3.1,3.2-4.6.6-1.1,1.8-2.6,3.3-2.4,2.4.4,3.3-3.2.9-3.7Z"></path><path class="st27" d="M169.7-606.4s-13.1-13-27.4-12.8c-3.9,0-9.1,12.3-9.1,12.3,0,0,26.4-3.7,37.3,1.5l-.8-1Z"></path><path class="st27" d="M171.6-605.9s24.8-6.7,32.1,5.9c2,3.4.6,10.2.6,10.2,0,0-21.9-15.3-33.9-15.7l1.2-.5Z"></path><path class="st27" d="M110.6-491.7c-11.2-2.9-25.9-29.5-25.9-29.5-.8-.2-1.5-.5-2.3-.9-.9,0-1.7-.3-2.3-1-.2-.3-.5-.6-.7-.9-1.2-1-2.4-2.2-3.4-3.6-.9-1-1.8-2.1-2.6-3.2-1.7-2.6-1.9-5.7-1.6-8.8.2-2.3.7-4.8,1.6-7.1,0,0,0,0,0,0,2-7.1,5.2-8.9,7.8-8.9,1.3-.8,2.6-.3,3.2.7.6.3,1,.5,1,.5,1.3-.6,2.6-1.5,3.9-2.5,0-.1,0-.2,0-.2.2,0,.4-.2.6-.3,6.8-5.9,13.3-16.7,13.3-16.7.3,0,.6-.2.9-.4l7.2-8.1c.1-.2.2-.4.2-.4,0,0,.1,0,.2,0v-.2c1,0,1.8-.2,2.6-.3,12.3-2.8,15.1-12.6,18.4-21.9,0-.4,0-.6,0-.6,0,0,.1,0,.2,0,.5-1.3,1-2.7,1.5-4,4.7-11.1,15.3-8.2,15.3-8.2-4.9-1.7-16.2-3.6-20.9,11.3-4.6,14.9-10.1,18.5-10.1,18.5,2.2-5.9,0-13.2,0-13.2,1.1,7.2-8.6,19.2-8.6,19.2l1.6-16.2c-5.1,17.1-13.3,12.5-13.3,12.5,0,0-2.1,5.4-13,5.7-10.9.2.9-22,.9-22-8.6,2.6-.8-18-.8-18-.3,0-.5.1-.8.2-8.8,12.6-6.1,28.6-6.1,28.6-23.2,29-13.9,42.9-13.9,42.9-7.9,41.3,12.8,48.6,12.8,48.6,5.6,4.5,9.6,2.8,9.6,2.8,2.4,1.6,7.6,1.8,7.6,1.8,11.7,7.2,14.9,5.1,15.5,4.5v-.7Z"></path><path class="st27" d="M171.6-477c11.3,2.5,36.5-14.4,36.5-14.4.8.2,1.6.3,2.4.3.7.5,1.7.5,2.5.1.3-.2.7-.3,1-.4,1.6-.3,3.1-.9,4.7-1.7,1.3-.5,2.6-1,3.8-1.7,2.7-1.5,4.3-4.3,5.4-7.1.8-2.2,1.5-4.6,1.8-7,0,0,0,0,0,0,1.5-7.3-.6-10.3-2.9-11.5-.8-1.3-2.2-1.4-3.2-.8-.7,0-1.1,0-1.1,0-.9-1.1-1.7-2.5-2.3-4,0-.1,0-.2,0-.2-.1-.2-.3-.4-.4-.6-3.4-8.4-4.3-21-4.3-21-.2-.2-.4-.5-.6-.7l-2.8-10.5c0-.3,0-.5,0-.5,0,0,0,0-.1,0v-.2c-.8-.4-1.5-.9-2.1-1.4-9.7-8.1-7.7-18.1-6.4-27.9.1-.4.2-.6.2-.6,0,0,0,0-.1-.1.2-1.4.3-2.8.4-4.2.9-12-9.9-14.3-9.9-14.3,5.2.7,16.1,4.2,13.5,19.5-2.7,15.4.6,21.1.6,21.1.7-6.3,5.9-11.7,5.9-11.7-4.3,5.9-1.1,21-1.1,21l5.9-15.2c-3.2,17.6,6.2,17.2,6.2,17.2,0,0-.6,5.8,9,10.9,9.6,5.2,9.2-20,9.2-20,6.5,6.2,8.9-15.7,8.9-15.7.2.2.4.4.6.6,2.1,15.2-7.6,28.2-7.6,28.2,7.5,36.4-7.1,44.5-7.1,44.5-12.5,35.8-33.9,37-33.9,37-7,1.4-9.4-1.5-9.4-1.5-2.9.3-7.6-1.8-7.6-1.8-13.7,1-15.6-2.3-15.9-3.1l.2-.7Z"></path><path class="st18" d="M118.7-636.7c-.1-.2-.3-.3-.4-.5.1-.6,0-1.2-.5-1.8-.3-.3-.6-.5-1-.6.4-.9-.2-1.8-1-2.3.2-.2.5-.3.7-.4,2.1-1.3.1-4.5-2-3.2-3.1,1.9-5.9,4.1-8.6,6.5-1.1,1.1-.2,3.4,1.4,3.2,1.3-.2,2.6-.5,3.9-.9.5.6,1.3.9,2.1.5.3.1.6.2.9.2,0,.1,0,.2.1.4.3.8.9,1.1,1.6,1.4,1.6,1,3.9-.8,2.7-2.5Z"></path><path class="st18" d="M127.3-629.4c.1-.5,0-1.1-.2-1.6,1.4-1,.7-3.7-1.4-3.4-1.7.2-3,1.7-4.2,2.7l-4.3,3.6c-1.6,1.3-.1,4.2,1.9,3.2.5-.2,1-.5,1.6-.8.3,1.1,1.3,2,2.5,1.3,0,0,.1,0,.2-.1.7,1,2.1,1.4,2.9.1.5-.8,1-1.6,1.5-2.4.6-1,.3-2.1-.4-2.7Z"></path><path class="st18" d="M134.1-620.9c0-.9-.7-1.6-1.6-1.8-.3-.3-.7-.6-1.1-.7-.5,0-1,0-1.4.2-.4.3-.7.7-.8,1.2-.2.5-.4,1-.6,1.5-.2.6,0,1.4.5,1.8.5.5,1.2.6,1.8.4.1,0,.3,0,.4,0,0,0,.2,0,.3,0,1.1.2,1.9-.4,2.3-1.4.1-.4.2-.8.2-1.2Z"></path><path class="st18" d="M218.4-598.1c-.3-.6-.8-1.2-1.3-1.7-.7-.6-1.9-.6-2.6,0-.5,0-1,.3-1.3.7-.2,0-.3,0-.5,0-2.4.1-2.3,3.9.1,3.8.2,0,.5,0,.8,0,0,.1.2.2.2.4.4.6,1.1,1,1.9.9.6-.1,1.2-.5,1.4-1.1.2,0,.4-.1.5-.2.9-.6,1.1-1.7.6-2.6Z"></path><path class="st18" d="M235.2-600.5c-1-2.1-2-4.4-3.3-6.3,0-.3-.1-.6-.2-.9-.2-.9-1.3-1.4-2.1-1.3-1,.2-1.5,1-1.6,1.9,0,0,0,.2,0,.2,0,.2,0,.3,0,.5,0,0,0,0,0,0,0,.7-.1,1.4-.2,2.1-.7-.1-1.4,0-1.9.6-.5.3-.8.7-1,1.4-1.2,0-2.4.9-2,2.4.3,1.2,1.1,2.1,2.1,2.7.9.5,1.8.2,2.4-.5,0,0,0,0,0,.1.8,1.3,2.3,1,3.1,0,.7.3,1.4.1,1.9-.4,1.6,1.1,3.4-.9,2.6-2.6Z"></path><path class="st18" d="M245.6-601.4c-.8-3.3-1.8-6.7-4.4-9.2-.3-.3-.7-.5-1.1-.5-.5-1.3-1-2.6-1.5-3.9-.9-2.3-4.5-1.2-3.6,1.1.4,1.1.8,2.2,1.3,3.3-.2.2-.4.5-.5.8-.4,1.3,0,2.6.3,3.9.3,1.4.7,2.7,1,4.1.4,1.7,2.4,1.6,3.3.5,0,0,0,0,.1.1.3.3.6.6.9.7.4.7,1.1,1.2,2.1,1.4,1.4.2,2.6-.9,2.2-2.4Z"></path><ellipse class="st12" cx="185.8" cy="-500.8" rx="5.1" ry="9.5" transform="translate(629.1 -202.7) rotate(-76.4)"></ellipse><ellipse class="st12" cx="106.4" cy="-520" rx="5.1" ry="9.5" transform="translate(586.9 -294.6) rotate(-76.4)"></ellipse><path class="st5" d="M207.1-462.3c.1-.8-.3-1.7-1.3-1.9-14-2.9-27.7-7.1-41-12.4,0-.9-.7-1.6-1.8-1.6-8,.2-15.9,0-23.8-.8,0,0,0,0,0,0-.8-.5-1.9-.5-2.5.6-.6,1.3-2.6,1.6-3.9,1.9-1.9.5-3.8.6-5.7.5-.6,0-1.1.2-1.4.6-.9,0-2,.9-1.9,1.9,1,10.1-3.2,19.9-6.8,29-3.5,8.8-7.6,17.6-13.6,25.1-3.1,3.9-6.7,7.5-10.7,10.4-.8.6-1.2,1.6-.7,2.6.3.5.9.9,1.5.9,0,.7.6,1.5,1.4,1.6,8.7,1.2,17.6-.4,25.3-4.9,7.7-4.5,12.6-12.4,20.2-17,2.3-1.4,4.7-2.5,7.1-3.6,1.9-.8,4.8-2.3,6.6-.6.8.7,1.7.6,2.4.1.6-.3,1-.8,1-1.6,0-5.8.6-11.5,1.9-17.1,10,6.3,20.2,12.2,30.6,17.7.5.3.9.3,1.4.2.9.3,2.1,0,2.4-1.2,3.1-10.2,7.6-19.9,13.3-28.9.4-.6.4-1.1.2-1.6Z"></path><path class="st2" d="M161.5-477c-.9-.1-1.8-.2-2.6-.3-1-.1-1.9,1-1.9,1.9s0,.3,0,.5c-7.8,10.6-20.9,15.2-32.9,19.3-1,.4-1.4,1.3-1.3,2.2,0,.1,0,.2-.1.4-2,7.9-5,15.5-8.9,22.7,0,0,0,0,0,0-2.1,1.2-.2,4.4,1.9,3.3,7.9-4.3,15.8-8.7,22.7-14.5,3.5-3,6.8-6.3,10.1-9.6,3.2-3.2,6.3-6.5,9-10.2,2.8-3.9,5-8.3,5.9-13.1.2-1.3-.5-2.2-1.8-2.4Z"></path><path class="st17" d="M97.1-403.6c-3.8.6-7.8.4-11.5-.4-1.7-.4-2.6,1.3-2.3,2.5-1,.4-1.6,1.6-.9,2.7,2.2,3.1,5.8,4.8,9.6,4.2,3.5-.6,6.4-3.3,7.5-6.6.5-1.5-1-2.5-2.3-2.3Z"></path><path class="st17" d="M215-454.3c-1.4-.7-2.5-1.8-4-2.1-.7-.2-1.4-.2-2,0,.7-1.1,1.5-2,2.6-2.3,2.3-.7,1.3-4.3-1-3.6-2.3.7-3.8,2.4-5,4.3-1.5,2.4-2.6,5.1-3.9,7.6-.7,1.3-1.4,2.6-2,3.9-.7,1.4-.8,2.9.6,3.8,1,.7,2.5,1,3.7,1.4,1.5.5,3,.9,4.4,1.2,1.3.3,2.3-.6,2.4-1.8,0-.7.6-.7,1.1-.6,1.4.4,3.2-1.4,2.1-2.8-.3-.4-.6-.8-.8-1.2,0,0,0,0,0,0,1.7,0,2.6-2.7.9-3.5-.5-.2-.7-.4-1-.8,0-.1.3,0,0-.2,2.2,1,4.1-2.1,1.9-3.3Z"></path><path class="st17" d="M161.2-394.7c-.5-2-1.2-3.8-1.4-5.8-.1-2,0-4.1.1-6.1.6-6.9,1.8-15.5-3.9-20.7-6.5-6-16.5.3-20,6.6-.6,1.1,0,2.1.8,2.6-1.2,7.6-.7,15.9,2.8,22.9,2.9,6,10,11.3,16.9,8.8,3.6-1.3,5.6-4.4,4.7-8.2Z"></path><path class="st18" d="M157-386.6c-3.2.8-6.4.7-9.5-.3-2.3-.7-3.3,2.9-1,3.6,3.7,1.2,7.7,1.3,11.5.3,2.3-.6,1.3-4.2-1-3.6Z"></path><path class="st13" d="M146.3-391.3c-2.2-10.7-3.6-21.5-3.1-32.4.1-2.4-3.7-2.4-3.8,0,0,0,0,.1,0,.2-1-.5-2.3-.2-2.5,1.1-2,11.2,0,22.8,5.9,32.6,1.1,1.9,3.9.6,3.4-1.5Z"></path><path class="st13" d="M206.5-460.6c-2.4,5-4.9,9.9-7.3,14.9-1.1,2.2,2.2,4.1,3.3,1.9l7.3-14.9c1.1-2.2-2.2-4.1-3.3-1.9Z"></path><path class="st24" d="M196.9-441.5c-.7,2.5-1.7,4.9-3,7.2-1.2,2.1,2,4,3.3,1.9,1.5-2.5,2.6-5.3,3.4-8.1.7-2.3-3-3.3-3.6-1Z"></path><path class="st23" d="M155-478.7c-5.6.3-11.3,0-16.8-1.1-2.4-.4-3.4,3.2-1,3.6,5.9,1.1,11.8,1.6,17.8,1.3,2.4-.1,2.4-3.9,0-3.8Z"></path><polygon class="st23" points="159.5 -452.7 193.6 -436 192.3 -429.7 159.2 -448.5 159.5 -452.7"></polygon><path class="st23" d="M163.5-474.6c-6.6,18.2-22.2,32.6-39.5,42.4-5.5,3.1-11.3,5.7-17.6,7-1.3.3-1.7,1.4-1.3,2.4-4.7,5.9-10.3,11.2-16.5,15.8-1.6,0-1.6,2.5,0,2.5,9.4,0,18.9,1.6,27.3-2.8,7-3.7,12.6-9.7,18.8-14.3,3.6-2.7,7.4-6.5,11.7-7.9,1.6-.5,3.7-2.9,2.1-2.3-7.5,2.5-16.3,7.4-22.2,12.2-6.3,5.2-12.8,9.9-21.3,11.6-4,.8-8.2,1-12.3,1.1,5.4-4.3,10.3-9.2,14.5-14.5,0,0,0,0,0,0,11.2-2.4,21.3-8.5,30.2-15,8.5-6.2,16-13.5,21.9-21.9,3.3-4.7,5.9-9.8,7.8-15.1.8-2.3-3.1-3.3-3.9-1Z"></path><path class="st2" d="M161.8-477.6c-1,0-2.1,0-3.1.1-2.1,0-2.1,3.4,0,3.3.2,0,.4,0,.5,0-6.9,14.8-18.2,27.5-32.1,36-2.1,1.3-4.2,2.5-6.4,3.6-.3.2-.6.3-.9.5,2.8-6.3,5-12.9,6.3-19.7.4-2.1-2.7-2.9-3.1-.9-.9,4.3-2,8.6-3.5,12.7-.4-.1-.8,0-1,.4-3.1,5.3-6.9,10.2-11.3,14.6-.7.7,0,1.6.9,1.5,1.4-.3,2.8-.6,4.1-1.1.8-.3,2.3-.6,2.8-1.3h0c.4,0,.8,0,1.2-.4,0,0,.1-.1.2-.2,3.9-1.6,7.8-3.4,11.5-5.3.5-.2.5-.7.3-1.1,3.8-2.3,7.3-4.8,10.7-7.6,6.7-5.6,12.6-12.1,17.4-19.4,2.7-4.2,5.1-8.5,7-13.1.4-1,0-2.5-1.4-2.5Z"></path><path class="st11" d="M39.6-528.9s-32.9-18.9-61.5,3.9c-28.5,22.9-19.6,65.4-7.6,78.2,12,12.9,42.6,42.5,104.3,50.8,0,0,56.4-47,64.1-88.1,7.7-41.1-22.8-70.1-49.6-72.7s-46.6,18.1-49.7,27.9Z"></path><path class="st11" d="M-24.7-444.2c-12-12.9-20.9-55.4,7.6-78.2,28.5-22.9,61.5-3.9,61.5-3.9,3.2-9.7,22.9-30.4,49.7-27.9,5.3.5,10.7,2,16,4.5-6.7-3.9-13.8-6.3-20.7-7-26.8-2.6-46.6,18.1-49.7,27.9,0,0-32.9-18.9-61.5,3.9-28.5,22.9-19.6,65.4-7.6,78.2,7.1,7.6,20.6,21,43.2,32.5-19.8-10.8-31.9-22.9-38.4-29.9Z"></path><path class="st17" d="M35.8-536.7c-.3-1.1-1.5-1.7-2.6-1.6-1,0-1.8.7-2.8.7-.6,0-1.2,0-1.8-.3,0-.2,0-.5-.1-.7-.9-2.2-2.8-3.3-5-3.9-2.6-.7-5.2-1.1-7.8-1.7-2.2-.5-4.8-1.5-7-.6-.2,0-.3.1-.5.2-.5-.2-1.1-.3-1.7.1-1.8,1.1-3.2,3-3.6,5.1-.4,1.9,0,4.8,2.3,5.1.5,0,1.1,0,1.6-.3.2.1.5.3.5.3.9.5,1.9.8,2.9.9,2,.2,4.4-.4,6.2.6.5.3,1,.3,1.4.1,1.4.3,2.7.9,4.1.1,1.2-.6,2.3-1.7,3.2-2.7.2.1.4.2.6.3,1.5.5,2.9.9,4.4.9.7,0,1.3,0,2-.3,0,0,.2,0,.3-.1.5.4,1.1.5,1.7.3,1.1-.5,1.9-1.5,1.5-2.8Z"></path><path class="st13" d="M33.9-536c-1.1-.3-2.1-.7-3.1-1.3-1.4-.8-2.6,1.4-1.2,2.2,1.2.7,2.4,1.2,3.8,1.5,1.6.4,2.1-2.1.5-2.5Z"></path><path class="st13" d="M28.4-537.7c0-.1-.2-.2-.3-.4,0,0,0,0,0,0,0,0,0,0,0,0,0-.7-.7-1.2-1.3-1.2-.2,0-.3,0-.4.1-.4-.4-1.1-.5-1.5,0-1.2,1.5-1.3,3.8-2.7,5.2-2.2,2.2-4.1-1.3-4.8-3-.1-.3-.5-.5-.9-.4-.2,0-.4-.1-.6,0-.2,0-.3.2-.4.3-.4.2-.8.7-.5,1.3.2.4.5.7.1,1.1-.3.4-.6,0-.9-.4-.4-.4-.9-.3-1.2,0-.1.1-.3.2-.4.2-.1-.5-.1-.9,0-1.4.3-1.1-1.4-1.5-1.7-.4-.1.5-.2,1-.1,1.5-.6-.4-1.2-1.1-1.9-1.2-.4,0-.7,0-1.1,0,0-.1.1-.3.2-.4.2-.4,0-1-.4-1.2-.4-.2-.9,0-1.2.4-.2.3-.4.7-.5,1.1,0,0-.1,0-.2,0-.2-.1-.3-.2-.5-.4,0,0-.2-.1-.3-.2-.2-.2-.4-.4-.6-.7-.6-1-2.1,0-1.5.9.5.8,1.1,1.5,1.9,1.9.5.3,1.1.6,1.7.8.3.1.7,0,.9-.3.4,0,.8-.2,1.2,0,.5.1.9.7,1.3,1,.4.3.9.4,1.4.5.8.1,1.5,0,2.2-.4.7.6,1.6,1,2.5.5.4.7,1.5.4,1.6-.3,1.1,1.2,2.5,2.1,4.3,1.5,2.4-.8,2.8-3.4,3.8-5.5,0,.2.2.4.3.5-.1.1-.2.3-.2.5-.1.7.3,1.3,1,1.5,1.1.3,2.1-.7,2.1-1.8,0-.4-.2-.9-.4-1.2Z"></path><path class="st23" d="M104.3-423.9c-.2,0-.4,0-.5.3-1.4,1.5-2.8,3-4.1,4.6-.9,1.1-1.5,2.3-2.3,3.4-.3.3-.7.6-1.1.8-2.8,2.1-5.9,3.9-8.2,6.5-.7.9.4,2,1.2,1.2,2.6-2.3,6.1-3.4,8.4-6.2.3-.4.6-.8.9-1.2,2.8-2.4,4.9-5.4,7-8.4.6-.8-.6-1.6-1.3-1.1Z"></path><path class="st13" d="M164-485.5c-7.5.4-15-.4-22.3-2.3-1.1-.3-1.6,1.4-.5,1.7,7.4,1.9,15.1,2.7,22.8,2.4,1.1,0,1.1-1.8,0-1.8Z"></path><path class="st13" d="M149.3-478.9c-3-.7-6.1-1.2-9.2-1.4-.9,0-1.1,1-.6,1.5-.5,2.3-1.5,4.4-2.9,6.3-.4.6.2,1.3.8,1.3,4.9.2,9.7-2.3,12.3-6.4.3-.5,0-1.2-.5-1.3Z"></path><path class="st11" d="M77.7-425.8c-46.4,28-109.5-24-109.5-24l.2.7c.6.8,1.1,1.5,1.7,2.1,12,12.9,42.8,42.7,104.7,51,0,0,56.6-47.2,64.3-88.5,5.2-27.8-7-50.1-23.7-62.5h-4.9c0,0,13.5,93.1-32.9,121.1Z"></path><ellipse class="st11" cx="-26.8" cy="-503.7" rx="14.8" ry="8.4" transform="translate(454.8 -353.5) rotate(-69.6)"></ellipse><g><g><path class="st4" d="M84.2-557.2c-.2.1-.3.2-.5.2-.1,0-.3.1-.4.2-.1,0-.3.1-.4.2-.1,0-.3.1-.4.2-.3.2-.5.3-.8.4-.3.1-.5.2-.8.4-.6.2-1.2.4-1.8.7-.6.2-1.2.6-2,.7-.4,0-.7-.2-.8-.6,0-.2,0-.3,0-.5.4-.7.9-1.1,1.4-1.6.5-.5,1.1-1,1.8-1.4.3-.2.7-.4,1.1-.5.4-.1.8-.2,1.2-.2.2,0,.4,0,.6,0,.2,0,.4,0,.6,0,.2,0,.4,0,.6.1.2,0,.4.2.6.3.3.2.4.7.1,1,0,0-.1.1-.2.2h-.1Z"></path><path class="st4" d="M139.1-481.6c.8.2,1.7.4,2.6.5.9.2,1.7.3,2.6.5.9.1,1.7.3,2.6.4.9.1,1.7.3,2.6.4,3.5.5,7,.9,10.5,1.1,1.7.1,3.5.2,5.2.2,1.7,0,3.5,0,5.2,0,.9,0,1.7,0,2.6-.1.9,0,1.7-.1,2.6-.2,1.7-.2,3.4-.4,5.2-.6,3.4-.6,6.8-1.3,10-2.5,3.2-1.2,6.3-2.7,9.1-4.6l.5-.4c.2-.1.3-.2.5-.4l1-.8.9-.8c.2-.1.3-.3.5-.4l.5-.4c1.2-1.2,2.3-2.5,3.3-3.9,1-1.4,1.8-2.9,2.6-4.4.7-1.5,1.3-3.2,1.8-4.8h0c0-.2.1-.3.2-.4.1-.2.3-.3.4-.5.1-.2.3-.4.4-.5.3-.4.6-.7.8-1.1.5-.7,1.1-1.5,1.6-2.2,1-1.5,2-3.1,3-4.6.9-1.6,1.9-3.2,2.8-4.8.2-.4.4-.8.7-1.2l.7-1.2,1.3-2.5h0c.2-.3.5-.4.8-.3.3.2.4.5.3.8-.4.9-.7,1.7-1.1,2.6-.4.8-.8,1.7-1.2,2.5-.4.8-.8,1.7-1.3,2.5-.4.8-.9,1.7-1.3,2.5-.9,1.6-1.9,3.2-2.9,4.8-.5.8-1,1.6-1.6,2.4-.3.4-.5.8-.8,1.2-.1.2-.3.4-.4.6-.1.2-.3.4-.4.6l.2-.4c-.5,1.8-1.1,3.5-1.8,5.2-.7,1.7-1.6,3.3-2.6,4.8-2,3.1-4.6,5.8-7.6,8-1.5,1.1-3,2.1-4.7,2.9-1.6.9-3.3,1.6-5,2.2-3.4,1.3-7,2.1-10.5,2.7-7.2,1.1-14.4,1-21.5.3-3.6-.4-7.1-.9-10.6-1.5-1.8-.3-3.5-.7-5.2-1.1-1.7-.4-3.4-.9-5.2-1.4-.3-.1-.5-.5-.4-.8,0-.3.4-.5.7-.4h0Z"></path><path class="st4" d="M224.1-522.5c.2,0,.3.1.4.2.1,0,.2.1.4.2.2.1.5.3.7.4.5.3.9.6,1.3,1,.8.7,1.5,1.6,2.1,2.5.6.9,1,1.9,1.3,3,.3,1,.5,2.1.6,3.2.2,2.2,0,4.3-.5,6.3-.2,1-.5,2-.9,3-.4,1-.8,2-1.3,2.9-1,1.9-2.4,3.6-4,5-1.6,1.4-3.5,2.5-5.5,3.3-2,.8-4,1.2-6.1,1.4-1,0-2.1.1-3.1,0-.5,0-1,0-1.5-.1-.5,0-1-.1-1.5-.3-.3,0-.5-.4-.5-.7,0-.3.3-.5.6-.5h0c.5,0,1,0,1.4,0,.5,0,1,0,1.4,0,1,0,1.9-.2,2.9-.3,1.9-.3,3.7-.8,5.4-1.6,1.7-.8,3.2-1.8,4.5-3.1,1.3-1.3,2.4-2.8,3.2-4.4.4-.8.8-1.7,1.1-2.5.3-.9.6-1.8.8-2.7.5-1.8.8-3.7.8-5.5,0-1.8-.4-3.6-1.2-5.3-.4-.8-.9-1.6-1.5-2.3-.3-.4-.6-.7-1-1-.2-.2-.3-.3-.5-.5,0,0-.2-.1-.3-.2l-.3-.2h0c-.3-.2-.3-.6-.1-.9.2-.2.5-.3.7-.2Z"></path><path class="st4" d="M140.9-501.7c.2,0,.5.2.7.3.2,0,.4.2.6.3.4.2.8.3,1.2.4.2,0,.4.1.6.2,0,0,.2,0,.3,0,0,0,.2,0,.3,0,.2,0,.4,0,.6.1.2,0,.4,0,.6,0,.2,0,.4,0,.6,0,0,0,.2,0,.3,0,.1,0,.2,0,.3,0,.2,0,.4,0,.6,0h.3c.1,0,.2,0,.3,0,.8-.1,1.7-.4,2.6-.7h0c.3,0,.6,0,.6.4,0,.2,0,.4-.1.5-.7.7-1.6,1.3-2.6,1.7-.5.2-1,.4-1.5.5-.3,0-.5,0-.8.1-.3,0-.6,0-.8,0-.3,0-.6,0-.8,0-.3,0-.5-.1-.8-.2-.5-.2-1-.4-1.5-.7-.4-.3-.9-.6-1.2-1-.2-.2-.4-.4-.5-.6-.2-.2-.3-.4-.4-.6-.1-.3,0-.6.2-.7.1,0,.3,0,.4,0h0Z"></path><path class="st4" d="M210.6-498.2c.2-.4.5-.7.8-1,.3-.3.6-.6.9-.9.3-.3.6-.6,1-.8.4-.3.7-.5,1.1-.7.4-.2.8-.4,1.3-.5.5-.1.9-.2,1.5-.2.1,0,.3,0,.4,0,.1,0,.3,0,.4.1.3.1.5.3.7.5.4.4.6.9.6,1.4,0,.2-.1.4-.3.4-.1,0-.3,0-.3-.2h0c-.2-.4-.4-.6-.6-.7-.2-.1-.5-.2-.8-.1-.3,0-.6.2-1,.3-.3.2-.7.3-1,.5-.7.4-1.3.8-2,1.2-.4.2-.7.4-1,.6-.3.2-.7.4-1.1.6h0c-.2,0-.4,0-.5-.2,0-.1,0-.2,0-.3Z"></path><path class="st4" d="M106.9-573.6c.1-.1.3-.2.4-.3.1-.1.3-.2.4-.3.3-.2.6-.4.8-.5.6-.3,1.2-.6,1.8-.9,1.2-.5,2.4-1,3.7-1.4,1.3-.4,2.6-.6,3.9-.7,1.3-.1,2.7,0,4,0,1.3.1,2.7.4,3.9.7.3,0,.6.2,1,.3l.9.3c.3.1.6.2.9.4.3.1.6.2.9.4,2.4,1.1,4.7,2.4,6.6,4.2.3.3.3.8,0,1.2-.2.3-.6.3-.9.2h0c-2.3-1-4.4-2-6.7-2.7-1.1-.3-2.3-.6-3.4-.7-.1,0-.3,0-.4,0h-.4c-.3,0-.6-.1-.9-.2-.3,0-.6,0-.9,0-.3,0-.6,0-.9,0-2.3-.1-4.6,0-7,.2-1.2.1-2.4.3-3.5.5-.6.1-1.2.3-1.7.4l-.9.2h-.4c-.1.1-.3.2-.4.2h-.1c-.5.1-.9-.2-1-.7,0-.3,0-.6.3-.8Z"></path><path class="st4" d="M210.2-545.8c-.1,0-.2-.2-.3-.3l-.3-.3-.7-.6c-.4-.4-.9-.8-1.3-1.2-.9-.8-1.8-1.5-2.8-2.2-2-1.3-3.9-2.5-6-3.5-.3-.1-.5-.3-.8-.4-.3-.1-.5-.2-.8-.3-.3-.1-.5-.2-.8-.3l-.4-.2c-.1,0-.3,0-.4-.1-1.1-.4-2.2-.7-3.4-1-2.3-.5-4.7-.7-7.2-.9h0c-.5,0-.8-.4-.8-.9,0-.4.3-.6.6-.7,2.5-.7,5.2-.7,7.8-.6.3,0,.7,0,1,.1.3,0,.7,0,1,.1l1,.2c.3,0,.7.1,1,.2,1.3.3,2.6.7,3.8,1.3,1.2.5,2.4,1.2,3.5,1.9,1.1.7,2.1,1.6,3.1,2.5.9.9,1.8,1.9,2.6,3,.4.5.8,1.1,1.1,1.6.2.3.3.6.5.9,0,.1.1.3.2.5,0,.2.1.3.2.5.2.4,0,.9-.5,1.1-.3.1-.6,0-.8-.1h0Z"></path><g><path class="st14" d="M123.3-556.6c-4.3-1.4-9.1,1.1-11.9,5.6,6,3.7,12,8.1,15.9,14,.7-1.2,1.4-2.5,1.8-3.9,2.2-7-.4-14-5.8-15.8Z"></path><g><path class="st4" d="M127.2-536.9c.3-.7.6-1.4.9-2.2,2.2-7-.4-14-5.8-15.8-3.8-1.2-7.9.5-10.8,4.1,5.9,3.6,11.9,8,15.7,13.9Z"></path><path class="st5" d="M124.4-544.5c-.6,1.8-2.1,2.9-3.5,2.4-1.4-.4-2-2.2-1.5-4,.6-1.8,2.1-2.9,3.5-2.4,1.4.4,2,2.2,1.5,4Z"></path></g></g><g><ellipse class="st14" cx="188.4" cy="-526.2" rx="13.3" ry="10.2" transform="translate(667.8 -238.9) rotate(-78.8)"></ellipse><g><ellipse class="st4" cx="188.5" cy="-524.2" rx="13.3" ry="10.2" transform="translate(666 -237.3) rotate(-78.8)"></ellipse><ellipse class="st5" cx="186.8" cy="-528.6" rx="3.4" ry="2.6" transform="translate(669 -242.4) rotate(-78.8)"></ellipse></g></g><path class="st4" d="M171.2-604.6c-.3-.3-.6-.6-.9-.9-.3-.3-.6-.6-.9-.9-.6-.6-1.2-1.2-1.9-1.8-1.3-1.1-2.6-2.2-4-3.2-2.8-2-5.7-3.6-8.9-4.7-.8-.3-1.6-.5-2.4-.7-.8-.2-1.6-.4-2.4-.5-1.6-.3-3.3-.4-4.9-.4-1.5,0-2.9.4-4.1,1.2-1.2.8-2.2,2-3.1,3.4-.9,1.4-1.6,2.9-2.2,4.4-.7,1.6-1.3,3.2-1.9,4.8-1.3,3.2-2.5,6.6-4.3,9.7-.9,1.6-1.9,3.1-3.1,4.5-1.2,1.4-2.6,2.6-4.1,3.6-.8.5-1.6.9-2.4,1.3-.9.3-1.7.6-2.6.8-1.8.4-3.6.5-5.4.5-.3,0-.6-.3-.6-.6,0-.3.3-.6.6-.6h0c.8,0,1.7-.1,2.5-.3.8-.1,1.6-.3,2.4-.5.8-.2,1.6-.5,2.3-.9.7-.4,1.5-.8,2.1-1.2,1.3-.9,2.5-2.1,3.5-3.4,1-1.3,1.9-2.7,2.7-4.2,1.5-3,2.6-6.3,3.8-9.6.6-1.6,1.1-3.3,1.8-5,.3-.8.7-1.7,1.1-2.5.4-.8.8-1.6,1.3-2.4.5-.8,1-1.6,1.7-2.3.6-.7,1.4-1.4,2.2-2,.8-.6,1.8-1,2.8-1.3,1-.3,2-.4,3-.4,1.8,0,3.7.2,5.5.5.9.2,1.8.4,2.7.7.9.3,1.7.6,2.6.9,3.4,1.4,6.4,3.3,9.2,5.6,1.4,1.1,2.7,2.3,3.9,3.6.6.6,1.2,1.3,1.8,2,.3.3.6.7.8,1.1.3.4.5.7.8,1.1.2.3.1.7-.2.9-.3.2-.6.1-.8-.1h0Z"></path><path class="st4" d="M120.2-603.7c0,.2,0,.4,0,.6,0,.2,0,.4,0,.6,0,.4,0,.8,0,1.2,0,.8-.2,1.6-.3,2.4-.3,1.6-.7,3.1-1.2,4.6-1,3-2.5,5.9-4.3,8.5-1.7,2.7-3.8,5.1-5.9,7.4-.5.6-1.1,1.1-1.6,1.7l-1.7,1.6c-.6.5-1.2,1-1.8,1.6-.6.5-1.2,1-1.8,1.5-.2.2-.5.1-.7,0-.2-.2-.1-.5,0-.7h0c.5-.6,1-1.2,1.6-1.7.5-.6,1-1.1,1.6-1.7l1.5-1.7c.5-.6,1-1.2,1.5-1.8l.7-.9.4-.4.3-.5.7-.9c.2-.3.4-.6.7-.9.5-.6.9-1.2,1.3-1.9.2-.3.4-.6.6-1,.2-.3.4-.6.6-1l.6-1,.6-1c.2-.3.4-.7.6-1,.2-.3.4-.7.5-1,.7-1.3,1.4-2.7,2-4,.6-1.4,1.1-2.8,1.6-4.2.2-.7.4-1.5.5-2.2,0-.4.2-.7.2-1.1,0-.2,0-.4,0-.6v-.5c0,0,0,0,0,0,0-.3.3-.5.6-.4.2,0,.4.2.4.4Z"></path><path class="st4" d="M112.9-599.7c0,.5-.2.9-.3,1.4l-.3,1.4c-.2.9-.4,1.8-.7,2.7l-.7,2.7-.8,2.7c-1.1,3.6-2.5,7.1-4.2,10.5-1.7,3.4-3.6,6.7-5.9,9.7-2.3,3-4.8,5.9-7.6,8.4h0c0,0,0,0,0,.1-.6.3-1.2.8-1.8,1.2-.6.4-1.2.9-1.8,1.4h0s0,0,0,0c-.3.1-.6.2-.8.3,0,0-.2,0-.2.1,0,0-.1,0-.2.2h0c-.2.3-.5.3-.7.1-.2-.2-.3-.4-.1-.7,0-.2.2-.3.3-.4.1-.1.3-.2.5-.3.3-.2.6-.2.7-.3h-.1c.5-.4,1.1-.9,1.6-1.4.6-.5,1.2-1,1.8-1.5h-.1c2.6-2.5,4.9-5.4,6.9-8.4,2-3.1,3.8-6.3,5.5-9.6,1.6-3.3,3.1-6.7,4.4-10.1l1-2.6.9-2.6c.3-.9.6-1.8.9-2.6l.4-1.3c.2-.4.3-.9.5-1.3h0c.1-.3.4-.4.7-.3.2,0,.4.3.3.6Z"></path><path class="st4" d="M133.4-607.8c1.6-.5,3.2-.8,4.8-1.1,1.6-.3,3.2-.5,4.9-.7,3.3-.4,6.6-.6,9.8-.5,1.6,0,3.3.2,4.9.4.8,0,1.6.2,2.5.4.8.2,1.6.3,2.4.5,1.6.4,3.2.8,4.8,1.4.2,0,.4.1.6.2l.6.2c.4.2.8.3,1.1.5l.6.3c.2,0,.4.2.5.3.4.2.7.4,1.1.7.2.1.2.4.1.6-.1.2-.3.2-.5.2h0c-.4-.2-.7-.4-1.1-.5-.2,0-.4-.2-.5-.2l-.6-.2c-.4-.2-.7-.3-1.1-.4l-.6-.2c-.2,0-.4-.1-.6-.2-.4-.1-.8-.2-1.1-.3l-1.2-.3c-.8-.2-1.6-.3-2.3-.5-.8-.1-1.6-.2-2.4-.3-.8,0-1.6-.2-2.4-.2-.4,0-.8,0-1.2,0-.4,0-.8,0-1.2,0-.8,0-1.6,0-2.4,0-3.2,0-6.4,0-9.6.2-1.6,0-3.2.2-4.8.4l-4.8.5h0c-.2,0-.4-.1-.5-.4,0-.2.1-.4.3-.4Z"></path><path class="st4" d="M169.7-605.9c.4-.2.8-.4,1.2-.6.4-.2.8-.4,1.2-.5.8-.3,1.7-.6,2.5-.9,1.7-.5,3.4-1,5.2-1.3,3.5-.6,7.1-.8,10.8-.4.9.1,1.8.2,2.7.4.9.2,1.8.4,2.7.7,1.7.6,3.4,1.3,5.1,2.2.9.5,1.7,1.1,2.4,1.8.7.7,1.3,1.6,1.8,2.5.5.9.8,1.9,1,2.8.2,1,.3,1.9.4,2.8,0,.9,0,1.9,0,2.8,0,.9-.2,1.8-.3,2.7-.2,1.8-.5,3.5-.8,5.2-.6,3.4-1.2,6.8-1.3,10.2,0,1.7,0,3.4.3,5,.3,1.6.7,3.2,1.5,4.7.4.7.8,1.4,1.3,2.1.5.7,1,1.3,1.6,1.9.6.6,1.2,1.1,1.9,1.7.7.5,1.4,1,2.1,1.4h0c.3.2.4.6.2.8-.2.3-.5.4-.8.2-1.6-.8-3.1-1.8-4.5-3-.7-.6-1.3-1.3-1.9-2-.6-.7-1.1-1.5-1.5-2.3-.9-1.6-1.5-3.4-1.9-5.2-.4-1.8-.5-3.6-.5-5.4,0-3.6.5-7.1.9-10.6.2-1.7.5-3.4.7-5.1.2-1.7.3-3.4.2-5,0-1.6-.4-3.1-1.1-4.4-.7-1.3-1.7-2.3-3-3-1.4-.8-2.9-1.5-4.5-2-.8-.3-1.6-.5-2.4-.7-.8-.2-1.6-.4-2.4-.5-3.3-.5-6.7-.6-10.1-.2-1.7.2-3.4.5-5,.9-.8.2-1.7.4-2.5.6-.4.1-.8.2-1.2.4-.4.1-.8.3-1.2.4h0c-.3.1-.7,0-.8-.4-.1-.3,0-.6.3-.7Z"></path><path class="st4" d="M215.4-578.9l-.2.5c0,.2-.1.3-.2.5-.1.4-.2.7-.3,1.1-.2.7-.4,1.4-.6,2.2-.3,1.5-.5,3-.7,4.5-.1,1.5-.2,3-.2,4.5,0,.4,0,.8,0,1.1,0,.4,0,.8,0,1.1v1.1s0,1.1,0,1.1c0,.4,0,.8,0,1.1,0,.4,0,.8,0,1.1,0,.8.1,1.5.2,2.3,0,.4,0,.8.1,1.1l.2,1.1v.6c0,0,.2.6.2.6l.2,1.1c.1.8.3,1.5.4,2.3l.5,2.2c.2.7.4,1.5.5,2.2.2.7.4,1.5.6,2.2h0c0,.3-.1.6-.4.6-.2,0-.5,0-.6-.3-.3-.7-.6-1.4-.9-2.2-.3-.7-.5-1.5-.8-2.2l-.7-2.2c-.2-.8-.4-1.5-.6-2.3-.8-3-1.4-6.1-1.7-9.3-.3-3.2-.2-6.4.4-9.5.3-1.6.7-3.1,1.2-4.6.3-.8.5-1.5.9-2.2.2-.4.4-.7.6-1.1,0-.2.2-.3.3-.5.1-.2.2-.3.4-.5.2-.2.5-.3.7,0,.2.1.2.4.2.6h0Z"></path><path class="st4" d="M219.9-572.2c-.4,2.2-.8,4.4-1.2,6.6-.4,2.2-.7,4.4-.9,6.6-.2,2.2-.4,4.4-.5,6.7v.8s0,.8,0,.8c0,.6,0,1.1,0,1.7v1.7s0,1.7,0,1.7c0,2.2.1,4.4.3,6.6.2,2.2.5,4.4,1,6.6.5,2.2,1.1,4.3,1.9,6.3.2.5.4,1,.6,1.5.1.3.2.5.3.8l.4.7c.5,1,1,2,1.5,2.9h0c.1.3,0,.6-.2.7-.2.1-.5,0-.7-.2-.7-.9-1.3-1.9-1.9-2.9-.6-1-1.1-2-1.6-3.1l-.7-1.6-.2-.4v-.4c-.1,0-.4-.8-.4-.8l-.3-.8c0-.3-.2-.5-.3-.8-.2-.6-.3-1.1-.5-1.7l-.4-1.7c0-.3-.1-.6-.2-.8l-.2-.8-.2-.8v-.8c-.2-.6-.3-1.1-.4-1.7l-.2-1.7c0-.6-.1-1.1-.2-1.7,0-.3,0-.6,0-.9v-.9c0-.6-.1-1.1-.1-1.7-.1-4.6.2-9.2,1-13.6.4-2.2.8-4.5,1.4-6.7.5-2.2,1.1-4.4,1.9-6.5.1-.3.4-.4.7-.3.2,0,.4.3.3.6h0Z"></path><path class="st4" d="M204.3-588.8l-4-2.8c-1.3-.9-2.7-1.8-4.1-2.6-2.8-1.7-5.5-3.3-8.3-4.8-.7-.4-1.4-.7-2.1-1.1-.4-.2-.7-.3-1.1-.5-.4-.2-.7-.3-1.1-.5-.7-.3-1.5-.7-2.2-1-.7-.3-1.5-.6-2.2-.8-.8-.3-1.5-.5-2.3-.7l-1.2-.3c-.4-.1-.8-.2-1.2-.3-.2,0-.4,0-.6-.1h-.6c-.4-.2-.8-.2-1.2-.3h-.6c-.2,0-.4-.1-.6-.1-.4,0-.8,0-1.2,0h0c-.2,0-.4-.2-.4-.4,0-.2.2-.4.4-.4.4,0,.8,0,1.2,0,.2,0,.4,0,.6,0h.6c.4,0,.8,0,1.2,0h.6c.2,0,.4.1.6.1,1.7.2,3.3.6,4.9,1.1.8.2,1.6.5,2.4.7.8.3,1.6.6,2.3.9,1.5.6,3,1.3,4.5,2.1,2.9,1.5,5.7,3.2,8.4,5.1,1.3,1,2.6,2,3.9,3,1.3,1,2.5,2.1,3.7,3.2.2.2.2.4,0,.6-.1.1-.4.2-.5,0h0Z"></path><path class="st4" d="M94.7-629.7c-.2.1-.4.2-.5.3-.2.1-.4.2-.5.4-.2.1-.3.3-.5.4-.2.1-.3.3-.5.4-.7.5-1.3,1.1-1.9,1.7-1.2,1.2-2.3,2.6-3.3,4-1,1.4-1.8,2.9-2.6,4.4-.8,1.5-1.5,3.1-2.1,4.7l-.2.6-.2.6c-.1.4-.3.8-.4,1.2-.2.8-.5,1.7-.7,2.5-.1.4-.2.8-.3,1.3l-.3,1.3v.6c-.2.2-.2.4-.3.6l-.2,1.3c-.6,3.4-.9,7-1.1,10.5h0c0,.2-.2.4-.4.4-.2,0-.4-.2-.4-.4-.2-3.6,0-7.1.4-10.7l.2-1.3c0-.2,0-.4,0-.7v-.7c.1,0,.3-1.3.3-1.3,0-.4.2-.9.3-1.3.2-.9.4-1.8.7-2.6.1-.4.3-.9.4-1.3l.2-.6.2-.6c.6-1.7,1.3-3.4,2.2-5,.9-1.6,1.9-3.1,3-4.6,1.1-1.4,2.4-2.8,3.8-4,.7-.6,1.4-1.2,2.2-1.7.2-.1.4-.2.6-.4.2-.1.4-.2.6-.3.2-.1.4-.2.6-.3.2-.1.4-.2.6-.3.2,0,.4,0,.5.2,0,.2,0,.4-.2.5h0Z"></path><path class="st4" d="M82.5-597.1c-.3.2-.5.6-.8,1-.3.4-.6.8-.9,1.2h0c-.5.6-.9,1.2-1.3,1.8-.4.6-.9,1.3-1.3,1.9-.9,1.3-1.7,2.6-2.7,3.9h0c-.8,1.3-1.7,2.6-2.5,3.9-.8,1.3-1.6,2.7-2.4,4-.8,1.4-1.5,2.7-2.2,4.1-.7,1.4-1.4,2.8-2,4.2-1.3,2.8-2.4,5.7-3,8.7-.6,3-.5,6.1.3,9.1,0,.2,0,.4-.3.5-.2,0-.4,0-.5-.2-.6-1.5-1-3.1-1.1-4.7-.1-1.6,0-3.3.2-4.9.5-3.2,1.5-6.3,2.7-9.2.6-1.5,1.3-2.9,2-4.3.7-1.4,1.4-2.8,2.2-4.2.8-1.4,1.6-2.7,2.5-4.1.9-1.3,1.8-2.6,2.7-3.9h0s0,0,0,0c1-1.2,1.9-2.4,2.8-3.6.9-1.2,1.9-2.5,2.9-3.7h0s0,0,0,0c.3-.3.6-.6.9-1,.2-.2.3-.4.5-.6.2-.2.4-.4.7-.5.2-.1.4,0,.6.2,0,.2,0,.4-.1.5h0Z"></path><path class="st4" d="M66.8-557.6c.1.2.2.4.2.5v.5c.2.3.1.7,0,1,0,.3-.3.7-.5,1-.2.3-.4.7-.8.8-.2.1-.5,0-.6-.2,0,0,0-.1,0-.2h0c0-.4,0-.7,0-1,0-.3,0-.6,0-.9,0-.3,0-.6.3-.9,0-.2.2-.3.3-.5,0-.2.2-.3.4-.4.3-.2.6,0,.8.2,0,0,0,0,0,0h0Z"></path><path class="st4" d="M249.1-590.1c-1.7-7.7-4.9-15.1-9.3-21.7-4.4-6.6-10-12.3-16.2-17.1-1.6-1.2-3.2-2.4-4.8-3.5-1.6-1.1-3.3-2.2-5-3.2-1.7-1-3.4-2-5.2-2.9-1.7-.9-3.5-1.8-5.3-2.7-3.6-1.7-7.2-3.2-11-4.6-1.9-.7-3.7-1.3-5.6-1.9-.9-.3-1.9-.6-2.8-.8-.5-.1-.9-.3-1.4-.4-.5-.1-1-.2-1.4-.4l.6-2.4,1.9.5-.7,2.4c-.4-.1-.9-.3-1.4-.4-.5-.1-1-.2-1.4-.4-1-.2-1.9-.4-2.9-.6-1.9-.4-3.9-.8-5.8-1.1-3.9-.6-7.9-1.1-11.8-1.3-4-.2-7.9-.3-11.9-.2-2,0-4,.2-5.9.4-2,.2-3.9.5-5.9.8-2,.3-3.9.7-5.8,1.2-1,.2-1.9.5-2.9.7-.9.3-1.9.5-2.8.8-1.9.6-3.7,1.3-5.6,2-1.8.8-3.6,1.6-5.4,2.5-1.8.9-3.5,1.9-5.1,3l-.6.4c-.2.1-.4.3-.6.4-.4.3-.8.6-1.2.8-.8.6-1.6,1.2-2.4,1.8-3.1,2.4-6,5.2-8.6,8.2h0c-.2.2-.5.2-.7,0-.2-.2-.2-.5,0-.7,5.1-6.3,11.5-11.5,18.6-15.3,7.1-3.9,14.9-6.3,22.9-7.7,2-.4,4-.6,6-.9,2-.2,4-.4,6-.5,4-.2,8.1-.2,12.1,0,4,.2,8,.6,12,1.2,2,.3,4,.6,6,1,1,.2,2,.4,3,.6.5.1,1,.2,1.5.4.5.1,1,.2,1.5.4.7.2,1,.9.8,1.5-.2.6-.8,1-1.5.9h0s-1.9-.5-1.9-.5h0c-.7-.2-1.1-.8-.9-1.5.2-.6.8-1,1.5-.9.5.1,1,.2,1.5.4.5.1,1,.3,1.5.4,1,.3,1.9.6,2.9.9,1.9.6,3.8,1.2,5.7,1.9,3.8,1.4,7.5,3,11.2,4.7,1.8.9,3.6,1.8,5.4,2.8,1.8,1,3.5,2,5.2,3.1,1.7,1.1,3.4,2.2,5.1,3.3,1.7,1.2,3.3,2.4,4.8,3.7,6.3,5.1,11.9,11.1,16.3,17.9l.4.6.4.6c.3.4.5.9.8,1.3l.7,1.3c.2.4.5.9.7,1.3l.4.7c.1.2.2.5.3.7.2.5.4.9.7,1.4.4.9.8,1.8,1.2,2.8,1.5,3.8,2.6,7.7,3.3,11.6,0,.3-.1.5-.4.6-.3,0-.5-.1-.6-.4h0Z"></path><path class="st4" d="M250-590.5c.2.2.3.4.4.6.1.2.3.4.4.6.1.2.2.4.4.6.1.2.2.4.3.6.4.8.8,1.6,1.1,2.5.6,1.7,1.1,3.5,1.4,5.3.3,1.8.4,3.6.4,5.4,0,1.8-.2,3.6-.5,5.4v.7c-.1,0-.2.7-.2.7,0,.4-.2.9-.3,1.3-.2.9-.4,1.8-.7,2.6-.1.4-.3.9-.4,1.3l-.4,1.3-.2.6c0,.2-.2.4-.2.6l-.5,1.3c-1.3,3.3-2.9,6.5-4.8,9.6-.1.2-.4.2-.6.1-.2-.1-.2-.3-.2-.5h0c1.5-3.2,3-6.4,4.1-9.7l.4-1.2c0-.2.1-.4.2-.6l.2-.6.4-1.3c.1-.4.2-.8.3-1.3.2-.8.4-1.7.6-2.5,0-.4.1-.9.2-1.3v-.6c.1,0,.2-.6.2-.6.3-1.7.4-3.4.4-5.2,0-1.7,0-3.4-.2-5.2-.2-1.7-.5-3.4-1-5.1-.2-.8-.5-1.6-.8-2.4,0-.2-.2-.4-.2-.6,0-.2-.2-.4-.3-.6,0-.2-.2-.4-.3-.6,0-.2-.2-.4-.3-.6h0c-.1-.2,0-.5.2-.6.2,0,.4,0,.5,0Z"></path><path class="st4" d="M245.1-555.8c.3,1.1.5,2.1.8,3.2.2,1.1.4,2.2.6,3.2.4,2.2.7,4.4.9,6.5.1,1.1.2,2.2.3,3.3,0,.5,0,1.1.1,1.7,0,.6,0,1.1,0,1.7,0,1.1,0,2.2,0,3.3,0,1.1,0,2.2,0,3.3-.2,4.4-.7,8.9-2.1,13.2-.7,2.1-1.6,4.2-2.9,6.1-1.3,1.9-3,3.5-5.1,4.5-.2,0-.4,0-.5-.2,0-.2,0-.4.2-.5.9-.5,1.7-1.2,2.5-1.9.7-.8,1.4-1.6,1.9-2.5,1.1-1.8,1.9-3.8,2.5-5.8.6-2.1.9-4.2,1.2-6.3.3-2.1.4-4.3.4-6.5,0-2.2,0-4.3,0-6.5,0-.5,0-1.1,0-1.6,0-.5,0-1.1,0-1.6,0-1.1-.1-2.2-.2-3.3-.1-2.2-.3-4.3-.6-6.5-.1-1.1-.2-2.2-.4-3.2l-.4-3.2h0c0-.2.1-.4.4-.5.2,0,.4.1.4.3Z"></path><path class="st4" d="M239.9-513.2c-.2,2.6-.7,5.1-1.4,7.5-.7,2.5-1.5,4.9-2.4,7.3-.5,1.2-1,2.4-1.6,3.5-.6,1.2-1.2,2.3-1.8,3.4-1.3,2.2-2.8,4.3-4.4,6.3-1.6,2-3.4,3.9-5.3,5.6-1.9,1.7-4,3.2-6.2,4.6-.5.3-1.1.7-1.7,1-.6.3-1.1.6-1.7.9-1.1.6-2.3,1.1-3.5,1.6-1.2.5-2.4.9-3.6,1.3-1.2.4-2.5.7-3.7,1-.2,0-.4,0-.5-.3,0-.2,0-.4.3-.5h0c1.2-.4,2.4-.8,3.5-1.2.3-.1.6-.2.9-.3l.9-.4.4-.2.4-.2.9-.4.8-.4c.3-.1.6-.3.8-.4l.8-.4.8-.5c.5-.3,1.1-.6,1.6-.9.5-.3,1.1-.7,1.6-1,4.1-2.8,7.7-6.2,10.8-10.1.8-1,1.5-2,2.2-3,.7-1,1.4-2.1,2-3.1l.5-.8.5-.8c.3-.5.6-1.1.9-1.6.6-1.1,1.1-2.2,1.6-3.3,1-2.3,1.9-4.6,2.7-7,.4-1.2.7-2.4,1-3.6.2-.6.3-1.2.5-1.8.1-.6.3-1.2.4-1.8h0c0-.2.3-.4.5-.3.2,0,.3.2.3.4Z"></path><path class="st4" d="M89.7-558.4c.2,0,.4.2.5.3,0,0,0,0,.1.1,0,0,0,0,0,.1,0,0,0,.1-.1.2,0,0,0,.1,0,.2,0,0,0,.1,0,.2,0,0,0,.1-.1.2,0,.1-.2.2-.2.3h0c-.2.5-.8.7-1.2.5-.3-.1-.5-.4-.5-.7,0-.1,0-.3-.1-.4,0,0,0-.1,0-.2,0,0,0-.1,0-.2,0,0,0-.1,0-.2,0,0,0-.1,0-.2,0,0,0,0,0,0,0,0,0,0,.1,0,.1,0,.3,0,.5-.1.4,0,.8,0,1.2.2h0Z"></path><path class="st4" d="M172-481c.3-1.4.5-2.8.6-4.2,0-.4,0-.7,0-1.1,0-.4,0-.7,0-1.1v-.5s0-.5,0-.5v-.5c0-.2,0-.3,0-.5,0-1.4-.3-2.8-.5-4.1,0-.3-.1-.7-.2-1,0-.3-.2-.7-.3-1,0-.3-.2-.7-.3-1-.1-.3-.2-.7-.3-1-.4-1.3-1.1-2.6-1.7-3.7l-.5-.9c0-.1-.2-.3-.3-.4l-.3-.4c-.4-.6-.9-1.1-1.3-1.7-1.8-2.2-3.8-4.1-6.2-5.5h0c0,0-.2-.1-.2-.2l-.7-.8.2.2c-1.6-.9-3.2-1.8-4.8-2.7-1.6-.8-3.3-1.6-5-2.2-1.7-.6-3.5-1.1-5.3-1.4-1.8-.3-3.6-.5-5.4-.5-.5,0-.9-.4-.9-.9,0-.5.4-.9.9-.9,1.9,0,3.9,0,5.8.4,1.9.3,3.8.8,5.6,1.4,1.8.6,3.6,1.3,5.3,2.1,1.7.8,3.4,1.7,5.1,2.6,0,0,.2,0,.2.2h0s.8.8.8.8l-.2-.2c.7.4,1.3.8,1.9,1.3.6.5,1.2.9,1.8,1.5,1.1,1,2.2,2.1,3.1,3.3.5.6.9,1.1,1.4,1.7l.3.4c.1.2.2.3.4.5l.6,1c.2.3.4.7.6,1l.3.5c0,.2.2.3.3.5l.5,1c.2.4.3.7.4,1.1.2.4.3.7.4,1.1.1.4.3.7.3,1.1,0,.4.2.7.3,1.1,0,.4.1.8.2,1.1,0,.4.1.8.2,1.1,0,.4,0,.8.1,1.1,0,.4,0,.8,0,1.1,0,.4,0,.8,0,1.1,0,.2,0,.4,0,.6v.6s0,.6,0,.6v.6c-.1.4-.2.8-.2,1.1,0,.4-.1.7-.2,1.1-.3,1.5-.7,2.9-1.3,4.3-.1.3-.5.5-.8.3-.3-.1-.4-.4-.4-.7h0Z"></path><path class="st4" d="M139.1-486.5l3.1.6,1.6.3,1.6.3c2.1.3,4.2.6,6.3.8,2.1.2,4.2.3,6.3.4,2.1,0,4.2,0,6.3,0l-1.2.9c.9-3.5,1.2-7.2.5-10.7-.3-1.7-.9-3.4-1.7-5-.8-1.6-1.9-3-3.1-4.3-.3-.3-.7-.6-1-.9-.2-.2-.3-.3-.5-.4-.2-.1-.3-.3-.5-.4-.7-.6-1.5-1.1-2.2-1.6-.8-.5-1.6-1-2.4-1.4-.8-.4-1.6-.8-2.5-1.2-3.4-1.4-7-2.3-10.7-2.7-.3,0-.5-.3-.5-.6,0-.3.2-.5.5-.5,1,0,1.9,0,2.9.1,1,0,1.9.2,2.9.4.9.2,1.9.4,2.8.7.9.3,1.9.6,2.8.9.9.3,1.8.7,2.7,1.1.9.4,1.7.9,2.6,1.4.8.5,1.7,1,2.4,1.6.2.1.4.3.6.4.2.2.4.3.6.5.4.3.8.6,1.1,1,.4.3.7.7,1.1,1.1.4.4.7.8,1,1.1.3.4.6.8.9,1.2.3.4.5.9.8,1.3,1,1.8,1.7,3.7,2,5.6.4,2,.5,4,.4,5.9-.1,2-.4,3.9-.9,5.8h0c-.1.6-.6.9-1.2.9-2.2,0-4.3-.1-6.5-.3-2.2-.2-4.3-.4-6.4-.7-2.1-.3-4.3-.7-6.4-1.2-.5-.1-1-.2-1.6-.4-.5-.1-1-.3-1.6-.4-.5-.1-1-.3-1.6-.4-.5-.2-1-.3-1.5-.5-.3,0-.4-.4-.3-.6,0-.2.3-.4.6-.3h0Z"></path><path class="st4" d="M220.3-524.8c-.1.7-.3,1.4-.5,2.2-.2.7-.4,1.4-.6,2.1-.2.7-.4,1.4-.7,2.1-.2.7-.5,1.4-.7,2.1-.3.7-.5,1.4-.8,2-.3.7-.6,1.3-.9,2-.6,1.3-1.3,2.6-2,3.9-1.4,2.6-3,5-4.8,7.4-1.7,2.3-3.6,4.6-5.7,6.7-2.1,2.1-4.3,4-6.6,5.8-1.2.9-2.4,1.7-3.7,2.4-1.3.7-2.6,1.4-3.9,2-1.3.6-2.7,1.2-4.1,1.7l-1,.4c-.2,0-.3.1-.5.2l-.5.2c-.4.1-.7.2-1.1.3l-1.1.3c-.4,0-.7.2-1.1.3-.4,0-.7.2-1.1.2-.7.1-1.4.3-2.2.4-1.4.2-2.9.4-4.4.5-.5,0-.9-.3-.9-.8,0-.5.3-.9.8-.9h0c5.6-.5,11.2-1.9,16.2-4.4,1.3-.6,2.5-1.3,3.7-2,1.2-.7,2.3-1.5,3.5-2.4,1.1-.9,2.2-1.7,3.3-2.7,1-.9,2.1-1.9,3-2.9,1-1,1.9-2.1,2.8-3.1.9-1.1,1.8-2.2,2.6-3.3,1.6-2.3,3.1-4.7,4.5-7.2.7-1.2,1.4-2.5,2-3.7.3-.6.6-1.3,1-1.9.3-.6.6-1.3.9-1.9.6-1.3,1.2-2.6,1.7-3.9.5-1.3,1.1-2.6,1.6-4h0c.1-.3.5-.5.8-.4.3.1.4.4.4.7Z"></path><path class="st4" d="M206-472.8c0,.2,0,.4,0,.5,0,.2,0,.3-.1.5-.1.3-.3.7-.5,1-.4.6-.9,1.1-1.6,1.5-.6.4-1.3.6-2,.8-.7.1-1.4.1-2.1,0-1.4-.1-2.7-.5-3.9-1-1.2-.5-2.4-1.1-3.5-1.8-.2-.1-.2-.3,0-.5,0-.1.3-.2.4-.1h0c.3,0,.6.2.9.3.1,0,.3.1.4.2l.4.2c.3.1.6.2.9.3h.4c0,.1.4.3.4.3h.4c0,.1.5.2.5.2.2,0,.3,0,.4,0h.4c.3.1.6.2.9.2.1,0,.3,0,.4,0,.1,0,.3,0,.4,0,1.2,0,2.3,0,3.3-.5.5-.2,1-.5,1.3-.9.2-.2.4-.4.5-.7,0-.1.2-.2.2-.4,0-.1.1-.3.2-.4h0c0-.2.3-.3.5-.2.1,0,.2.2.2.3Z"></path><path class="st4" d="M201.8-475.6c-.2.4-.4.7-.6,1-.2.3-.5.6-.8.8-.6.5-1.2,1-1.8,1.4-1.3.8-2.8,1.3-4.3,1.4-1.5.2-3,0-4.5-.2-.4,0-.7-.2-1.1-.2-.4,0-.7-.2-1.1-.3-.3-.1-.7-.2-1-.4-.3-.1-.7-.3-1-.4-.2,0-.3-.3-.2-.5,0-.2.2-.2.4-.2h0c1.4.3,2.8.5,4.1.6.3,0,.7,0,1,0,.2,0,.3,0,.5,0h.5c.2,0,.3,0,.5,0,.2,0,.3,0,.5,0,.3,0,.7,0,1-.1,1.3-.2,2.6-.6,3.8-1.1.6-.3,1.2-.6,1.8-1,.3-.2.5-.4.8-.6.3-.2.5-.4.8-.7h0c.1-.2.4-.2.5,0,.1.1.1.3,0,.4Z"></path><path class="st4" d="M199.4-477c-1.2.7-2.4,1.3-3.7,1.8-1.3.5-2.5,1-3.8,1.4-2.6.8-5.3,1.4-8.1,1.6-1.4,0-2.8,0-4.2,0-1.4-.1-2.8-.4-4.1-.8-1.3-.4-2.6-.9-3.9-1.6l-.9-.5h-.2c0-.1-.2-.3-.2-.3l-.4-.3-.4-.3c-.1,0-.3-.2-.4-.3-.3-.2-.5-.4-.8-.7-.1-.1-.2-.4,0-.5.1-.1.3-.2.5,0h0c1.1.8,2.2,1.4,3.4,2,1.2.5,2.4.9,3.7,1.2,1.3.3,2.6.4,3.9.5,1.3,0,2.6,0,3.9,0,1.3,0,2.6-.3,3.9-.5,1.3-.2,2.6-.5,3.9-.8,1.3-.3,2.6-.7,3.8-1.1,1.3-.4,2.5-.9,3.8-1.3h0c.2,0,.4,0,.5.2,0,.2,0,.3-.1.4Z"></path></g><path class="st4" d="M2.8-535.5c-2.3.5-4.6,1.1-6.9,1.9-1.1.4-2.2.8-3.4,1.2-1.1.4-2.2.9-3.3,1.4-1.1.5-2.1,1-3.2,1.6-1,.6-2.1,1.2-3,1.8-2,1.3-3.9,2.7-5.6,4.3-3.5,3.2-6.5,6.9-8.9,10.9-2.4,4.1-4.2,8.5-5.4,13-1.2,4.6-2,9.3-2.2,14,0,1.2,0,2.4,0,3.5,0,1.2,0,2.4.1,3.5,0,1.2.2,2.4.3,3.5.1,1.2.3,2.3.5,3.5.8,4.7,2.1,9.2,4,13.5,1.9,4.3,4.4,8.3,7.3,12,2.9,3.7,6.2,7.1,9.8,10.3,1.8,1.6,3.6,3.1,5.5,4.5,1.9,1.4,3.9,2.8,5.9,4.1,8,5.2,16.6,9.6,25.4,13.3,4.4,1.9,8.9,3.6,13.4,5.2,4.5,1.6,9.1,3,13.7,4.4,2.3.7,4.6,1.3,7,1.9,2.3.6,4.7,1.2,7,1.8,2.3.6,4.7,1.2,7,1.8l7,1.7h0c.3,0,.5.4.4.7,0,.3-.4.5-.7.4l-7.1-1.5c-2.4-.5-4.7-1-7.1-1.6-2.4-.5-4.7-1.1-7-1.7-2.3-.6-4.7-1.2-7-1.8-9.3-2.5-18.6-5.6-27.5-9.2-4.5-1.8-8.9-3.8-13.3-6-4.3-2.2-8.6-4.6-12.7-7.2-2-1.3-4.1-2.7-6-4.1-2-1.5-3.9-3-5.7-4.6-1.8-1.6-3.6-3.3-5.3-5-1.7-1.8-3.3-3.6-4.9-5.5-3.1-3.9-5.7-8.1-7.7-12.6-2-4.5-3.3-9.3-4.2-14.2-.2-1.2-.4-2.4-.5-3.7-.1-1.2-.2-2.4-.3-3.7,0-1.2,0-2.5,0-3.7,0-1.2,0-2.5.1-3.7.3-4.9,1.1-9.8,2.4-14.5,1.4-4.7,3.3-9.3,5.9-13.5,2.6-4.2,5.8-8,9.5-11.3.9-.8,1.9-1.6,2.9-2.3,1-.7,2-1.4,3.1-2.1,1-.6,2.1-1.3,3.2-1.8,1.1-.6,2.2-1.1,3.3-1.6,4.5-2,9.2-3.4,14-4.2.3,0,.6.2.7.5,0,.3-.1.6-.4.6h0Z"></path><path class="st4" d="M39.3-528.5c-.6-.2-1.2-.6-1.8-.9-.6-.3-1.2-.6-1.7-.9-.6-.3-1.2-.5-1.7-.8l-1.7-.9-1.7-.9c-.6-.3-1.2-.6-1.8-.8-1.2-.6-2.4-1-3.6-1.6h0c-.3-.1-.4-.5-.3-.7,0-.2.3-.3.5-.3,1.4,0,2.7.4,4,.7.7.2,1.3.4,2,.6.3.1.7.2,1,.3.2,0,.3.1.5.2l.5.2c1.3.6,2.5,1.2,3.6,2.1.5.4,1.1.9,1.6,1.3.5.5,1,.9,1.4,1.5.2.3.1.6-.1.8-.2.1-.3.1-.5,0h0Z"></path><path class="st4" d="M39.1-529.1c1-2.7,2.4-5.2,4-7.6,1.7-2.3,3.6-4.5,5.7-6.4,2.1-1.9,4.4-3.7,6.8-5.2,2.4-1.5,4.9-2.9,7.6-4,5.2-2.3,10.8-3.9,16.5-4.7,2.8-.4,5.7-.6,8.6-.5h.5s.5,0,.5,0h1.1c.4,0,.7,0,1.1.1h1.1c.4.1.7.2,1.1.2h1.1c.7.3,1.4.4,2.1.5,2.8.6,5.6,1.4,8.3,2.5,2.7,1.1,5.2,2.4,7.7,3.9l.9.6.5.3.4.3,1.8,1.2,1.7,1.3c.3.2.6.5.8.7l.8.7c2.2,1.9,4.2,3.9,6.1,6.1,1.9,2.2,3.6,4.5,5.2,6.9,1.6,2.4,3,4.9,4.3,7.5l.5,1c.2.3.3.7.4,1l.4,1,.2.5.2.5c.3.7.5,1.3.8,2l.7,2c.9,2.7,1.7,5.5,2.2,8.3.6,2.8.9,5.7,1,8.6,0,2.9,0,5.8-.4,8.6-.7,5.7-2.1,11.3-4,16.7-1.9,5.4-4.3,10.6-7.1,15.5-2.7,5-5.8,9.7-9.1,14.4-3.3,4.6-6.8,9.1-10.4,13.4-3.6,4.3-7.5,8.5-11.4,12.5-7.9,8.1-16.2,15.7-24.6,23.1-.2.2-.6.2-.8,0-.2-.2-.2-.6,0-.8,4.1-3.8,8.2-7.7,12.3-11.6,2-2,4-3.9,6-5.9,1-1,2-2,3-3,1-1,2-2,2.9-3,1-1,1.9-2,2.9-3.1.5-.5,1-1,1.4-1.6l1.4-1.6c.5-.5.9-1,1.4-1.6l1.4-1.6,1.4-1.6.7-.8.7-.8c3.6-4.3,6.9-8.8,10.1-13.4,3.2-4.6,6.2-9.3,8.8-14.2,2.6-4.9,4.9-10,6.7-15.2,1.8-5.2,3.1-10.6,3.7-16.1.3-2.7.4-5.5.3-8.2,0-2.7-.4-5.5-1-8.2-.5-2.7-1.3-5.4-2.1-8l-.7-1.9c-.3-.6-.5-1.3-.8-1.9l-.2-.5-.2-.5-.4-.9c-.1-.3-.3-.6-.4-.9l-.5-.9c-2.4-4.9-5.5-9.6-9.1-13.8-1.8-2.1-3.8-4-5.8-5.8l-.8-.7c-.3-.2-.5-.5-.8-.7l-1.6-1.3-1.7-1.2-.4-.3-.4-.3-.9-.6c-2.3-1.5-4.7-2.8-7.3-3.8-2.5-1-5.1-1.9-7.8-2.4-.7-.1-1.3-.3-2-.4h-1c-.3-.2-.7-.3-1-.3h-1c-.3-.1-.7-.2-1-.2h-1c0,0-.5,0-.5,0h-.5c-2.7,0-5.5,0-8.3.4-5.5.7-10.9,2.1-16,4.3-5.1,2.2-9.9,5-14,8.7-2.1,1.8-4,3.8-5.6,6.1-1.7,2.2-3.1,4.6-4.1,7.2h0c-.1.3-.5.4-.7.3-.3-.1-.4-.4-.3-.7Z"></path><path class="st4" d="M166.9-477.1l1.3.5,1.3.5c.8.4,1.7.7,2.6,1,.8.3,1.7.7,2.6,1,.9.3,1.7.7,2.6,1,3.4,1.3,6.9,2.5,10.4,3.6l2.6.8,2.6.7c1.8.4,3.5.9,5.3,1.2,3.6.7,7.2,1.2,10.8,1.6.7,0,1.2.7,1.1,1.3,0,.2-.1.4-.2.6h0c-.2.3-.5.6-.7.9-.2.3-.5.6-.7,1-.5.7-.9,1.3-1.3,2-.9,1.3-1.7,2.7-2.5,4-.8,1.4-1.6,2.8-2.3,4.2-.8,1.4-1.5,2.8-2.2,4.3-.7,1.4-1.4,2.9-2,4.3-.6,1.5-1.2,2.9-1.8,4.4-1.1,3-2.1,6-2.9,9.1h0c-.1.6-.7.9-1.2.8,0,0-.2,0-.3-.1l-33.1-19.4c-.4-.2-.6-.8-.3-1.2.2-.4.8-.6,1.2-.3l33.3,19.2-1.5.6c.8-3.2,1.7-6.3,2.8-9.4.5-1.5,1.1-3.1,1.8-4.6.6-1.5,1.3-3,2-4.5,1.4-2.9,2.9-5.8,4.6-8.6.8-1.4,1.7-2.8,2.6-4.2.4-.7.9-1.4,1.4-2,.2-.3.5-.7.7-1,.2-.3.5-.7.7-1l.8,1.9c-3.7-.4-7.4-.8-11.1-1.5h-.7c0-.1-.7-.3-.7-.3l-1.4-.3c-.5,0-.9-.2-1.4-.3l-1.4-.3c-.9-.2-1.8-.5-2.7-.7-.9-.3-1.8-.5-2.7-.8-3.5-1.2-7-2.5-10.4-4.1-1.7-.8-3.4-1.6-5-2.4-.8-.4-1.7-.8-2.5-1.3l-1.2-.7-1.2-.7c-.3-.2-.4-.5-.2-.8.1-.3.5-.4.8-.3h0Z"></path><path class="st4" d="M201.5-442c0,.7-.3,1.3-.5,2-.2.6-.4,1.3-.6,1.9-.4,1.3-1,2.5-1.7,3.7-.3.6-.7,1.2-1.1,1.8-.4.6-.9,1.1-1.3,1.7-.5.5-1,1-1.6,1.5-.6.4-1.3.8-2.1.9-.3,0-.6-.1-.6-.4,0-.2,0-.4.2-.5h0c.5-.4.9-.7,1.4-1.2.4-.4.8-.9,1.1-1.5.3-.5.6-1.1.9-1.7.3-.6.6-1.1.9-1.7.6-1.2,1.2-2.3,1.9-3.5l1-1.7c.3-.6.7-1.2,1.1-1.7.2-.2.5-.3.8,0,.1.1.2.3.2.5h0Z"></path><path class="st4" d="M209-438.9c-5.3,0-11.9-3.9-12.3-4.1-.5-.3-.7-1-.4-1.5.3-.5,1-.7,1.5-.4,0,0,2.2,1.3,4.9,2.3,3.2,1.3,5.8,1.7,7.7,1.3-.1-.4-.5-1.1-.8-1.7-.3-.4-.3-1,0-1.3.3-.4.8-.5,1.3-.4.7.3,1.9.5,2.4.3,0,0,0,0,.1-.1,0,0,0-.1,0-.2-.2-.5-1.3-1-2-1.2-.5-.2-.8-.6-.8-1.1,0-.5.4-1,.9-1.1,1.1-.2,2.2-.6,2.8-.9-.6-.3-1.8-.8-2.8-1-.5-.1-.9-.6-.9-1.2,0-.5.4-1,1-1.1,1.5-.2,3.1-.7,3.6-1.1-.5-.6-2.7-1.7-5.2-2.5-.6-.2-.9-.8-.7-1.4.2-.6.8-.9,1.4-.7,1.8.6,6.2,2.2,6.8,4.2.2.5,0,1.1-.2,1.6-.3.5-1,1-1.7,1.3,1,.6,1.4,1.2,1.4,1.7.2,1.4-1.3,2.1-2.3,2.5.3.3.5.6.7.9.3.6.4,1.3.1,2-.2.7-.7,1.1-1.3,1.4-.2,0-.8.3-1.7.3.2.6.2,1.2,0,1.7-.2.5-.6.9-1.2,1.1-.8.2-1.6.3-2.4.3ZM215.4-453.1h0,0Z"></path><path class="st4" d="M209.5-454.8c-.3,0-.5,0-.8-.3-.5-.4-.5-1.1,0-1.6,1.6-1.8,3-4.1,2.9-4.8-.3-.3-2-.3-3.7.2-.6.2-1.2-.1-1.4-.7-.2-.6.1-1.2.7-1.4.8-.3,5-1.5,6.3.8.6,1.1.2,2.6-1.2,4.8-.9,1.4-1.9,2.5-2,2.6-.2.3-.5.4-.8.4ZM211.6-461.5h0Z"></path><path class="st4" d="M159.6-452.8c0,.5,0,1,0,1.5,0,.5,0,1,0,1.5,0,.5,0,1-.1,1.5,0,.5,0,1-.1,1.5,0,.5-.1,1-.2,1.5,0,.5-.1,1-.2,1.5-.1,1-.2,2-.3,3-.2,2-.3,4-.5,5.9,0,1-.2,2-.2,3l-.2,3h0c0,.4-.4.8-.8.7-.4,0-.8-.4-.7-.8,0-1,0-2,0-3v-3c.1-2,.2-4,.3-6v-1.5c.2-.5.2-1,.3-1.5v-1.5c.2-.5.2-1,.3-1.5,0-.5.2-1,.3-1.5.1-.5.2-1,.4-1.5,0-.2.1-.5.2-.7,0-.2.2-.5.2-.7.2-.5.3-1,.6-1.4.1-.3.5-.4.7-.3.2,0,.3.3.3.5h0Z"></path><path class="st4" d="M26.4-539.1c0,.8,0,1.5-.2,2.2-.1.7-.3,1.5-.6,2.2-.2.7-.6,1.4-1.1,2.1-.5.7-1.1,1.3-2,1.8-.4.2-1,.3-1.5.3-.5,0-1,0-1.4-.2-.5-.2-.9-.4-1.2-.7-.3-.3-.6-.6-.8-1-.5-.7-.8-1.4-1-2.1-.2-.7-.4-1.5-.4-2.2,0-.3.2-.5.4-.5.2,0,.4.1.5.3h0c.2.7.5,1.3.8,1.9.3.6.6,1.2,1,1.6.4.5.9.8,1.3.9.2,0,.5,0,.7,0,.2,0,.4-.1.6-.2.4-.2.8-.6,1.1-1.1.4-.5.7-1.1,1-1.6.3-.6.6-1.2.9-1.8.3-.6.5-1.3.8-1.9h0c.1-.3.4-.3.6-.2.2,0,.2.2.3.4Z"></path><path class="st4" d="M12.5-536.9c.2.3.3.6.5.9.1.3.3.6.5.8.2.3.4.5.5.7.2.2.4.4.6.5.2.1.4.3.7.4.2.1.5.2.8.2.6,0,1.3,0,2,0h0c.3,0,.5.2.5.5,0,.2,0,.3-.2.4-.6.5-1.4.8-2.3.9-.4,0-.9,0-1.4,0-.5,0-1-.2-1.4-.5-.4-.3-.8-.6-1.1-1-.3-.4-.5-.8-.6-1.2-.1-.4-.2-.9-.2-1.3,0-.4,0-.8.1-1.3,0-.3.4-.4.6-.3.1,0,.2.1.3.2h0Z"></path><path class="st4" d="M8.1-537c0,.1.1.3.1.5v.5c.2.3.3.6.4.8.1.2.3.4.4.6.1.2.3.3.5.4,0,0,0,0,.1,0,0,0,.1,0,.2,0,.1,0,.2.1.4.2.3.1.5.2.9.3.6.1,1.3.1,2,.3h0c.3,0,.4.3.4.6,0,.2-.1.3-.3.3-.7.4-1.5.5-2.3.6-.4,0-.8,0-1.3,0-.4,0-.9-.2-1.3-.5-.4-.2-.8-.6-1.1-1-.3-.4-.5-.9-.5-1.3,0-.5,0-.9,0-1.3,0-.4.2-.8.4-1.2.1-.2.4-.3.7-.1,0,0,.1.1.2.2h0Z"></path><path class="st4" d="M28.2-534.4c0-.4,0-.9,0-1.3,0-.4,0-.9-.1-1.3-.1-.9-.3-1.7-.7-2.4-.4-.7-.9-1.2-1.6-1.5-.7-.3-1.5-.4-2.3-.3,0,0-.1,0-.2,0h0c-1.4-.4-2.9-.7-4.3-.9-1.5-.3-2.9-.6-4.4-.8-1.4-.2-2.9-.4-4.3-.5-.7,0-1.4,0-2.1,0-.3,0-.7,0-.9.1-.3,0-.5.2-.7.3h-.3c0,.1,0,.1,0,.1h0s0,0,0,0c0,0-.1,0-.2,0-.1,0-.2,0-.3.1-.2.1-.4.2-.6.4-.4.3-.7.6-.9,1,0,.1,0,.2-.1.3,0,0,0,.1,0,.2v.2c-.1.3-.2.6-.2.8,0,.3,0,.5,0,.8,0,.1,0,.2,0,.3h0c0,0,0,.1,0,.1h0s0,0,0,0c0,0,0,0,0,0h0c0,0,.1.6.1.6,0,0,0,0,0,0h0c0,.2,0,.2,0,.3,0,.1,0,.3,0,.4,0,.3,0,.5.1.8.1.5.4,1,.8,1.3.4.4.9.6,1.5.8.6.2,1.2.2,1.8.3h0c.3,0,.4.2.4.5,0,.2-.2.4-.4.4-.7,0-1.4,0-2.1,0-.7-.1-1.4-.4-2-.9-.6-.5-1.1-1.2-1.3-1.9-.1-.4-.2-.7-.2-1.1,0-.2,0-.4,0-.6,0,0,0-.2,0-.3h0c0-.2,0-.2,0-.3v.6c0,0,0,0,0-.1,0,0,0,0,0,0,0,0,0,0,0-.1,0,0,0-.1,0-.2v-.2s0-.2,0-.2c0-.2,0-.4,0-.6,0-.4,0-.7,0-1,0-.3,0-.7.1-1v-.2c0,0,0-.2,0-.3,0-.2,0-.4.2-.5.3-.7.7-1.4,1.3-1.9.3-.2.6-.5.9-.6.2,0,.3-.2.5-.2,0,0,.2,0,.3-.1h.1s0,0,0,0h0s-.3.1-.3.1c.5-.3.9-.5,1.4-.6.4-.1.9-.2,1.3-.2.8,0,1.6,0,2.4,0,1.6,0,3.1.3,4.6.5,1.5.3,3,.6,4.5.9,1.5.4,2.9.8,4.4,1.2h-.3c.5,0,1,0,1.6,0,.5.1,1.1.3,1.5.5.5.3,1,.6,1.3,1,.4.4.7.9.9,1.4.5,1,.6,2,.7,3,0,.5,0,1,0,1.5,0,.5-.1,1-.2,1.4,0,.2-.3.4-.6.3-.2,0-.4-.3-.3-.5h0Z"></path><path class="st4" d="M28.6-537.1c.4-.4.9-.7,1.4-1,.5-.3,1-.6,1.6-.8.5-.2,1.1-.5,1.7-.6.3,0,.6-.1,1,0,.4,0,.8,0,1.2.2.1,0,.2,0,.3.2.1,0,.2.1.3.2.1,0,.2.2.3.3,0,.1.2.2.2.4,0,0,0,.1,0,.2h0c0,.1,0,.2,0,.2,0,0,0,.2,0,.3v.3c0,0,0,.2,0,.3,0,.8-.2,1.5-.5,2-.3.6-.7,1.1-1.1,1.5-.4.5-.8.8-1.4,1.2-.2.1-.5,0-.6-.1-.1-.2,0-.4,0-.5h0c.6-.9,1.2-1.8,1.4-2.7.1-.4.2-.9,0-1.2h0c0-.2,0-.2,0-.2,0,0,0,0,0-.1,0,0,0,0,0,0h0s0,0,0,0c0,0,0,0,0,0,0,0,0,0,0,0,0,0,0,0,0,0,0,0,0,0,0,0,0,0-.2,0-.4,0-.2,0-.4,0-.7,0-.5,0-1,.1-1.5.3-.5.1-1,.2-1.6.4-.5.1-1.1.3-1.6.4h0c-.3,0-.5-.1-.5-.4,0-.2,0-.3.1-.4Z"></path><path class="st4" d="M84.9-404.4c4.7,1.4,9.7,2,14.6,2,5.3,0,10.8-.7,15.7-2.8,5.6-2.4,10.7-5.9,15.3-9.8,2.4-2,4.7-4,6.9-6.2,1.1-1.1,2.2-2.3,3.4-3.4.4-.4,1-.5,1.4-.9.5-.5.9-.9,1.4-1.3,1.8-1.5,4.2-2.6,6.6-2.7,1.1,0,2.2.2,3.2.7.5.3,1,.6,1.4,1,.2.2.4.5.6.7.3.3.7.6,1,.9,1.8,2.1,2.5,5.3,2.7,8,.2,2.9-.2,5.8-.5,8.7-.3,3.1-.5,6.1,0,9.3.4,2.6,2.1,5.1,1.9,7.8-.1,2.5-2.8,4.1-5,4.7-2.3.6-4.8.4-7.1-.4-5.2-1.8-8.4-6.6-10.1-11.7-1.7-5.4-1.8-11.1-1.9-16.6,0-1.4,0-2.7,0-4.1,0-1.6-2.6-1.6-2.5,0,.2,5.9,0,11.9,1.1,17.7,1.1,5.7,3.8,11.6,8.7,15,4.3,3,10.3,4.1,15,1.5,2.5-1.4,4.5-3.7,4.4-6.7,0-1.5-.5-2.9-1-4.3-.5-1.5-1-2.9-1.2-4.5-.8-6.2,1.4-12.4.4-18.6-.2-1.5-.7-3-1.3-4.4-.3-.7-.7-1.4-1.1-2-.5-.8-1-1.3-1.7-1.9-1-1-1.9-1.9-3.2-2.5-1.2-.5-2.5-.8-3.8-.8-2.6,0-5.3,1-7.4,2.5-.5.4-1.1.8-1.6,1.2-.5.4-.8.9-1.4,1.1-.7.3-1.2.9-1.7,1.5-.6.6-1.2,1.2-1.8,1.8-4.6,4.6-9.5,8.8-15,12.3-2.6,1.7-5.4,3.3-8.3,4.4-2.6,1-5.3,1.6-8.1,1.9-5.5.6-11.1.4-16.5-.7-1.1-.2-2.2-.5-3.2-.8-1.5-.5-2.2,1.9-.7,2.4h0Z"></path><path class="st4" d="M152.3-385.4c2.4-2.5.3-6.1-2-7.8-2.6-1.8-6.1-1.8-8.7-.2-1.4.8-.1,3,1.3,2.2,1.7-1,3.7-1.2,5.5-.3,1.1.6,3.6,2.9,2.3,4.3-1.1,1.2.7,3,1.8,1.8h0Z"></path><path class="st4" d="M153.8-387.3c.7-4.2,3.5-7.9,7.4-9.4,1.5-.6.8-3-.7-2.4-4.7,1.8-8.4,6.1-9.2,11.1-.3,1.6,2.2,2.3,2.4.7h0Z"></path><path class="st4" d="M161-391.4c-.9,2.2-1.8,4.5-3.6,6-1.9,1.7-4.4,1.7-6.7,1-4.2-1.2-9.4-4.1-9.6-9,0-1.6-2.6-1.6-2.5,0,.2,6.2,6.3,10.1,11.7,11.5,2.9.8,6,.6,8.4-1.3,2.4-1.9,3.6-4.8,4.7-7.5.3-.6-.3-1.4-.9-1.5-.7-.2-1.3.3-1.5.9h0Z"></path><path class="st4" d="M82.2-402.3c6.4,5.2,15.4,5.2,21.8,0,1.3-1-.5-2.8-1.8-1.8-5.2,4.3-13,4.3-18.2,0-1.2-1-3,.8-1.8,1.8h0Z"></path><path class="st4" d="M81.4-401.7c.4,4.5,3.7,8.2,8.3,8.7,4.8.6,8.2-2.7,11.2-6,1.1-1.2-.7-3-1.8-1.8-2.3,2.5-4.9,5.4-8.5,5.3-3.5,0-6.4-2.8-6.6-6.3-.1-1.6-2.6-1.6-2.5,0h0Z"></path><path class="st4" d="M92.4-399.6c-1.4,1.3-2.2,3.2-2,5.1.1,1.6,2.6,1.6,2.5,0-.1-1.3.3-2.4,1.3-3.3,1.2-1.1-.6-2.9-1.8-1.8h0Z"></path><path class="st4" d="M162.4-476c-4.2,9.6-10,18.4-17.2,26-7.2,7.6-15.7,13.9-25,18.7-5.3,2.7-10.8,4.8-16.5,6.4-1.6.4-.9,2.9.7,2.4,10.3-2.9,20.1-7.6,28.8-13.8,8.7-6.2,16.4-13.9,22.6-22.7,3.5-4.9,6.4-10.2,8.8-15.7.6-1.5-1.5-2.7-2.2-1.3h0Z"></path><path class="st4" d="M130.2-456.2c11-2.9,20.7-9.6,27.5-18.6,1-1.3-1.2-2.5-2.2-1.3-6.4,8.5-15.7,14.7-26,17.5-1.6.4-.9,2.8.7,2.4h0Z"></path><path class="st4" d="M149.5-477.6c-3.3,4.3-9.3,6.1-14.5,4.6-1.6-.4-2.2,2-.7,2.4,6.3,1.8,13.3-.6,17.3-5.8.4-.5,0-1.4-.5-1.7-.6-.4-1.3,0-1.7.5h0Z"></path></g><path class="st2" d="M25.6-558c-1.9-1.3-3.8-2.7-5.3-4.3s-2.6-3.7-2.5-5.8c0-1,.3-1.9.9-2.7.8-1.1,2.2-1.8,3.7-1.8s2.9.6,3.7,1.7c.9-1,2.4-1.6,3.8-1.5s2.8.8,3.6,2c.5.8.7,1.8.7,2.8,0,2.1-1.3,4.1-2.9,5.7s-3.6,2.9-5.5,4.1"></path><path class="st2" d="M43.2-576.6c-1.5-1-2.9-2.1-4.1-3.4-1.2-1.3-2-2.9-2-4.5,0-.7.2-1.5.7-2.1.6-.8,1.7-1.4,2.8-1.4,1.1,0,2.3.5,2.9,1.3.7-.8,1.9-1.2,3-1.2s2.2.7,2.8,1.5c.4.6.6,1.4.5,2.2,0,1.7-1,3.2-2.2,4.4-1.2,1.2-2.8,2.2-4.3,3.2"></path><path class="st11" d="M25-582.4c-3-.9-6-1.8-8.6-3.3-2.6-1.5-4.9-3.7-5.8-6.4-.4-1.2-.5-2.6,0-3.9.6-1.7,2.1-3.2,4-3.9,1.9-.7,4-.4,5.5.6.7-1.7,2.4-3.1,4.3-3.6s4-.1,5.4,1c1.1.8,1.7,2,2.1,3.3.8,2.8,0,5.9-1.3,8.6-1.4,2.7-3.4,5.2-5.3,7.6"></path></g><g><path class="st19" d="M286.7,150c0,40.4-17.2,76.7-44.8,102.1,0,0-179,8.2-187.9,0-27.5-25.3-44.8-61.7-44.8-102C9.3,73.4,71.4,11.3,148,11.3s138.7,62.1,138.7,138.7h0Z"></path><path class="st8" d="M286.7,150c0-.7,0-1.3,0-2l-101.5-101.5-30.6,162.1,45.5,45c24.3-.8,41.8-1.6,41.8-1.6,27.5-25.3,44.8-61.7,44.8-102.1h0Z"></path><g><path class="st3" d="M216.5,149.4c11-22.6-13.3-35-12.4-46.3.9-11.2.5-32.7-15.2-52.4-14.5-18.3-38.2-18.4-41.4-18.3-3.2,0-26.9,0-41.4,18.3-15.6,19.7-16.1,41.2-15.2,52.4.9,11.2-23.3,23.6-12.4,46.3,11,22.6-15.6,29.5,9.2,51.5h119.6c24.7-22-1.8-28.8,9.2-51.5h0Z"></path><path class="st0" d="M213.8,194.1c-1.6,2.1-3.7,4.3-6.4,6.7h-59.4V32.4c4.4,0,27,.7,41,18.3,15.6,19.7,16.1,41.2,15.2,52.4-.9,11.2,23.3,23.6,12.4,46.3-9.8,20.1,10.2,27.8-2.7,44.7Z"></path><g><path class="st1" d="M170.8,193.6h0s-22.8,1.6-22.8,1.6l-22.8-1.6v-48.4c0,0,45.6,0,45.6,0v48.4Z"></path><g><path class="st15" d="M170.8,193.6l-22.8,1.6v-50h22.8s0,43.3,0,43.3v5.1Z"></path><path class="st5" d="M241,253c-24.6,22.2-57.2,35.7-92.9,35.7s-69.2-13.9-94-36.7l21.2-48c2.1-4.7,5.3-8.8,9.2-11.9,5.5-4.4,12.4-6.9,19.7-6.9h43.9l92.9,67.7Z"></path><path class="st10" d="M242,252.1c-.3.3-.7.6-1,.9-24.6,22.2-57.2,35.7-92.9,35.7v-103.4h22.8l47.1,13.7c1.1,1.6,2,3.3,2.8,5.1l21.2,48Z"></path><g><path class="st10" d="M106,237v45.2c-5.6-1.8-11-3.9-16.3-6.3v-38.9h16.3Z"></path><path class="st20" d="M206.3,237v38.9c-5.3,2.4-10.7,4.6-16.3,6.3v-45.2h16.3Z"></path></g></g><path class="st21" d="M187,86.7c-1.7-25-21.9-34.3-39.1-34.2-17.1,0-37.4,9.3-39,34.3-4.4.9-7.6,6.7-7.1,11.4l.8,10.7c.5,4.9,4.9,8.5,9.6,8h.8c7.6,20.2,18.5,26.5,27.5,29,4.8,1.3,9.9,1.3,14.7,0,9.1-2.5,20-8.8,27.6-29.1h.8c4.8.6,9.1-3,9.6-7.9l.7-10.7c.5-4.7-2.7-10.5-7.1-11.4h0Z"></path><path class="st1" d="M148,146.8c2.5,0,4.9-.3,7.4-1,9.1-2.5,20-8.8,27.6-29.1h.8c4.8.6,9.1-3,9.6-7.9l.7-10.7c.5-4.7-2.7-10.5-7.1-11.4-1.7-25-21.9-34.2-39-34.2v94.3h0Z"></path></g><path class="st0" d="M158.6,168.1h-21.2c-13.6,0-24.7-11.1-24.7-24.7v-26.6l70.6-.2v26.8c0,13.6-11.1,24.7-24.7,24.7h0Z"></path><path class="st26" d="M183.3,116.7v26.8c0,13.6-11.1,24.7-24.7,24.7h-10.6v-51.4h35.3Z"></path><path class="st21" d="M132.2,129.6h31.6v16.3h-31.6v-16.3Z"></path><path class="st22" d="M217.9,199l-88.5,88.5c-16.3-2.2-31.7-7.2-45.7-14.5l64.3-64.7,22.8-22.9h21.1c7.3,0,14.2,2.5,19.7,6.9h0c2.4,1.9,4.6,4.2,6.3,6.8Z"></path><path class="st6" d="M217.9,199l-69.9,69.9v-60.6l7.3-7.3,15.5-15.6h21.1c7.3,0,14.2,2.5,19.7,6.9h0c.8.6,1.5,1.3,2.3,2,1.5,1.5,2.9,3.1,4.1,4.8Z"></path><path class="st3" d="M148,43.9c-1-.3-43.1-10.9-39,42.9,24.1,1.4,39-20.7,39.1-20.7h0c27.5-11.4,39,20.7,39,20.7-1-39.4-38.1-43.1-39-42.9Z"></path><path class="st0" d="M153.4,43.4c-3,.2-5.2.4-5.4.5v22.1s0,0,0,0h0s0,0,0,0c0,0,0,0,0,0,0,0,14.9,22.1,39.1,20.7,6.8-.4,3.6-12.1-1.2-23.5-5.4-12.9-18.5-21-32.5-19.9h0Z"></path></g></g><g><path class="st7" d="M323.9,252.8c-2.4-1-4.4-2.4-6.1-4.3-.2-.2-.3-.5-.3-.7s.1-.5.4-.8l3-2.9c.2-.2.4-.3.7-.3s.5.1.7.4c1.2,1.2,2.6,2.1,4.2,2.8,1.6.6,3.2,1,4.8,1s3.4-.4,4.5-1.1,1.6-1.8,1.6-3.2-.3-1.7-.8-2.3c-.5-.6-1.3-1.1-2.4-1.6s-2.6-1-4.5-1.5c-3.1-.8-5.6-2-7.7-3.6-2.1-1.6-3.1-3.9-3.1-6.9s.5-3.5,1.4-5,2.4-2.7,4.2-3.6c1.9-.9,4.1-1.3,6.7-1.3s4.3.4,6.3,1.1c2,.8,3.8,1.8,5.4,3.1.3.2.4.4.4.7s-.1.5-.3.7l-2.8,3.2c-.2.3-.5.4-.7.4s-.4,0-.7-.3c-1-.8-2.2-1.5-3.5-2s-2.6-.8-4-.8-3.1.3-4.1,1c-1,.6-1.6,1.5-1.6,2.7s.3,1.6.8,2.1c.5.6,1.2,1,2.1,1.4s2.1.8,3.8,1.3l.6.2c2.4.8,4.5,1.6,6.1,2.5,1.6.9,2.9,2,3.8,3.3s1.4,3,1.4,4.9-.5,4.1-1.6,5.7c-1.1,1.6-2.6,2.9-4.6,3.8-1.9.9-4.2,1.3-6.7,1.3s-5.1-.5-7.5-1.5Z"></path><path class="st7" d="M449.8,253c0,.2,0,.4-.2.5-.2.1-.4.2-.6.2h-4.9c-.6,0-.9-.3-1.1-.8l-2.2-5.9h-14.7l-2.2,5.9c-.2.5-.6.8-1.1.8h-4.9c-.3,0-.5,0-.7-.2-.2-.1-.2-.3-.2-.5s0-.3,0-.4l13.1-33.4c.2-.5.6-.8,1.2-.8h4.3c.6,0,1,.3,1.2.8l13,33.4c0,.2,0,.3,0,.4ZM438.6,241.1l-5-13.5-.3-1.2-.3,1.2-5,13.5h10.6Z"></path><path class="st7" d="M546.8,253.7h-21.1c-.7,0-1-.3-1-1v-33.3c0-.7.3-1,1-1h4.8c.7,0,1,.3,1,1v27.8h15.3c.7,0,1,.3,1,1v4.5c0,.7-.3,1-1,1Z"></path><path class="st7" d="M633,253.7h-4.1c-.6,0-1-.3-1.2-.8l-13-33.3c0-.1-.1-.3-.1-.5s0-.4.2-.5c.2-.1.4-.2.6-.2h5.2c.6,0,.9.3,1.1.8l9.1,24.9h0s9-24.9,9-24.9c.2-.5.6-.8,1.1-.8h5.2c.3,0,.5,0,.7.2.2.1.2.3.2.5s0,.3-.1.5l-13,33.3c-.2.5-.6.8-1.2.8Z"></path><path class="st7" d="M747.4,253c0,.2,0,.4-.2.5-.2.1-.4.2-.6.2h-4.9c-.6,0-.9-.3-1.1-.8l-2.2-5.9h-14.7l-2.2,5.9c-.2.5-.6.8-1.1.8h-4.9c-.3,0-.5,0-.7-.2-.2-.1-.2-.3-.2-.5s0-.3,0-.4l13.1-33.4c.2-.5.6-.8,1.2-.8h4.3c.6,0,1,.3,1.2.8l13,33.4c0,.2,0,.3,0,.4ZM736.2,241.1l-5-13.5-.3-1.2-.3,1.2-5,13.5h10.6Z"></path><path class="st7" d="M850.1,249.8c0,.2-.1.5-.4.7-1.4,1.1-2.9,1.9-4.5,2.5-1.6.6-3.3,1-5.1,1.2.5.9,1,1.8,1.4,2.7.4.9.6,1.7.6,2.4,0,1.2-.4,2.2-1.3,3-.9.8-2.5,1.4-4.8,1.7,0,0-.1,0-.2,0-.5,0-.9-.3-1-.9l-.3-1.4c0,0,0-.2,0-.3,0-.5.3-.8.9-.9s1.1-.3,1.4-.5c.3-.2.5-.4.6-.6,0-.2.1-.5.1-.8s-.2-1.1-.5-2-.7-1.8-1.1-2.5c-2.9-.4-5.6-1.5-8-3.2-2.4-1.7-4.2-3.8-5.5-6.4-1.3-2.6-2-5.4-2-8.4s.8-6.4,2.4-9.2c1.6-2.8,3.8-5,6.6-6.6,2.8-1.6,5.9-2.4,9.2-2.4s4.1.3,6,1c1.9.6,3.6,1.6,5.1,2.7.3.2.4.5.4.7s0,.4-.3.7l-2.7,3.6c-.2.3-.5.4-.8.4s-.4,0-.7-.3c-1.1-.7-2.2-1.3-3.4-1.7s-2.5-.6-3.8-.6c-2,0-3.9.5-5.6,1.5-1.7,1-3.1,2.4-4.2,4.2s-1.5,3.8-1.5,5.9.5,4.1,1.5,5.9,2.4,3.2,4.2,4.2,3.6,1.6,5.6,1.6,2.6-.2,3.7-.6c1.1-.4,2.3-1,3.4-1.9.2-.2.5-.2.7-.2.3,0,.6.1.8.4l2.7,3.6c.2.3.3.5.3.7Z"></path><path class="st7" d="M955.4,253c0,.2,0,.4-.2.5-.2.1-.4.2-.6.2h-4.9c-.6,0-.9-.3-1.1-.8l-2.2-5.9h-14.7l-2.2,5.9c-.2.5-.6.8-1.1.8h-4.9c-.3,0-.5,0-.7-.2-.2-.1-.2-.3-.2-.5s0-.3,0-.4l13.1-33.4c.2-.5.6-.8,1.2-.8h4.3c.6,0,1,.3,1.2.8l13,33.4c0,.2,0,.3,0,.4ZM933.5,216c-.2,0-.3,0-.5-.1l-1.2-.6c-.4-.2-.6-.5-.6-.9s0-.3.1-.5c.6-1.3,1.2-2.3,2-2.8.8-.6,1.6-.8,2.4-.8s1.2,0,1.7.3c.5.2,1.1.4,1.8.7.5.2.9.4,1.2.5.3.1.6.2.9.2s.5,0,.7-.2.4-.3.5-.6c.3-.4.6-.6.9-.6s.3,0,.5.1l1.2.6c.4.2.7.5.7.9s0,.3-.1.5c-.6,1.3-1.2,2.3-2,2.8-.8.6-1.6.8-2.4.8s-1.2,0-1.7-.3-1.1-.4-1.8-.7c-.5-.2-.9-.4-1.2-.5-.3-.1-.6-.2-.9-.2-.5,0-.9.2-1.2.7-.3.4-.5.6-.9.6ZM944.2,241.1l-5-13.5-.3-1.2-.3,1.2-5,13.5h10.6Z"></path><path class="st7" d="M1035.3,251.9c-2.8-1.6-5-3.8-6.6-6.6-1.6-2.8-2.4-5.9-2.4-9.2s.8-6.4,2.4-9.2c1.6-2.8,3.8-5,6.6-6.6,2.8-1.6,5.9-2.4,9.2-2.4s6.4.8,9.2,2.4c2.8,1.6,5,3.8,6.6,6.6,1.6,2.8,2.4,5.8,2.4,9.2s-.8,6.4-2.4,9.2c-1.6,2.8-3.8,5-6.6,6.6-2.8,1.6-5.9,2.4-9.2,2.4s-6.5-.8-9.2-2.4ZM1050.2,246.2c1.7-1,3.1-2.5,4.1-4.2,1-1.8,1.5-3.8,1.5-5.9s-.5-4.2-1.5-5.9c-1-1.8-2.4-3.2-4.2-4.2-1.7-1-3.6-1.5-5.6-1.5s-3.9.5-5.6,1.5c-1.7,1-3.1,2.4-4.2,4.2s-1.5,3.8-1.5,5.9.5,4.1,1.5,5.9,2.4,3.2,4.2,4.2,3.6,1.6,5.6,1.6,3.9-.5,5.7-1.6Z"></path></g></svg>